<svg id="svg" version="1.1" width="400" height="383.72093023255815" viewBox="0 0 400 383.72093023255815" xmlns="http://www.w3.org/2000/svg" xmlns:xlink="http://www.w3.org/1999/xlink" ><g id="svgg"><path id="path0" d="M343.570 30.769 C 342.831 30.975,341.161 31.564,339.858 32.078 C 338.555 32.593,337.142 33.013,336.719 33.013 C 336.295 33.013,335.633 33.402,335.249 33.877 C 334.864 34.352,333.944 35.147,333.205 35.644 C 332.466 36.141,331.257 37.351,330.518 38.331 C 328.912 40.464,328.897 40.484,327.443 42.375 C 326.812 43.196,326.296 44.111,326.296 44.408 C 326.296 44.705,325.865 45.380,325.338 45.906 C 324.811 46.433,324.120 47.367,323.803 47.981 C 323.485 48.594,322.707 49.865,322.073 50.804 C 321.440 51.742,320.921 52.664,320.921 52.851 C 320.921 53.039,320.561 53.641,320.120 54.189 C 318.361 56.374,315.498 60.560,314.583 62.284 C 314.050 63.287,313.464 64.107,313.280 64.107 C 313.095 64.107,312.574 64.842,312.121 65.739 C 311.668 66.636,310.915 67.928,310.447 68.610 C 309.980 69.292,308.909 70.933,308.068 72.257 C 307.226 73.581,306.440 74.750,306.320 74.856 C 306.200 74.962,305.708 75.696,305.227 76.488 C 304.746 77.279,304.221 77.927,304.061 77.927 C 303.605 77.927,302.878 79.775,302.885 80.920 C 302.893 82.316,303.190 82.682,304.990 83.513 C 307.858 84.836,312.476 88.506,312.476 89.461 C 312.476 89.662,312.727 89.827,313.034 89.827 C 313.341 89.827,313.902 90.275,314.282 90.822 C 314.661 91.369,315.382 92.189,315.884 92.645 C 316.893 93.562,320.921 99.614,320.921 100.214 C 320.921 100.422,321.415 101.682,322.019 103.014 C 323.060 105.308,323.620 108.142,324.194 114.012 C 324.412 116.234,324.744 117.681,326.356 123.417 L 326.787 124.952 327.173 123.800 C 327.385 123.167,328.120 122.020,328.807 121.252 C 329.494 120.483,330.171 119.490,330.313 119.044 C 330.454 118.599,330.714 118.234,330.890 118.234 C 331.067 118.234,331.398 117.759,331.627 117.179 C 332.020 116.181,333.758 113.521,335.489 111.267 C 335.919 110.708,336.616 109.499,337.038 108.580 C 337.460 107.661,338.491 105.873,339.330 104.607 C 340.169 103.340,341.241 101.569,341.713 100.672 C 342.185 99.774,342.710 99.040,342.879 99.040 C 343.048 99.040,343.187 98.824,343.187 98.560 C 343.188 97.976,345.857 93.874,347.184 92.419 C 347.713 91.838,348.352 90.675,348.604 89.834 C 348.856 88.992,349.381 88.015,349.771 87.663 C 350.161 87.310,350.480 86.855,350.480 86.651 C 350.480 86.237,353.161 81.682,353.581 81.382 C 353.818 81.213,355.294 78.858,357.522 75.093 C 357.912 74.435,358.556 73.543,358.954 73.112 C 359.352 72.681,359.878 71.731,360.123 71.001 C 360.369 70.271,360.783 69.415,361.044 69.098 C 361.534 68.503,364.361 63.865,365.790 61.313 C 366.237 60.515,366.603 59.613,366.603 59.309 C 366.603 59.005,367.049 57.413,367.594 55.770 C 368.746 52.303,368.780 46.662,367.660 44.892 C 367.333 44.376,366.938 43.522,366.781 42.994 C 364.413 35.046,351.896 28.453,343.570 30.769 M99.808 80.349 C 98.669 80.943,95.549 81.961,93.666 82.354 C 92.927 82.507,91.113 83.326,89.635 84.173 C 88.157 85.020,86.579 85.913,86.128 86.157 C 83.840 87.395,78.815 91.720,77.628 93.471 C 77.055 94.317,76.478 95.096,76.347 95.202 C 76.216 95.307,75.553 96.300,74.873 97.409 C 74.194 98.517,73.512 99.424,73.358 99.424 C 73.203 99.424,72.770 100.417,72.395 101.631 C 72.019 102.845,71.498 104.184,71.236 104.607 C 70.646 105.558,69.933 108.370,69.387 111.900 C 68.808 115.640,68.505 296.294,69.072 299.808 C 69.293 301.180,69.669 303.599,69.906 305.182 C 70.144 306.766,70.817 309.098,71.401 310.365 C 71.985 311.631,72.579 313.211,72.721 313.876 C 72.864 314.540,73.330 315.400,73.758 315.787 C 74.186 316.174,74.771 317.054,75.058 317.742 C 75.658 319.177,82.017 325.639,84.533 327.370 C 85.463 328.010,86.452 328.808,86.729 329.142 C 87.007 329.477,87.460 329.750,87.735 329.750 C 88.011 329.750,89.242 330.340,90.472 331.060 C 91.701 331.781,93.484 332.483,94.434 332.620 C 95.384 332.757,96.939 333.107,97.889 333.397 C 98.839 333.686,100.480 334.142,101.536 334.410 C 104.168 335.077,283.328 335.372,287.140 334.716 C 292.437 333.804,293.171 333.661,295.777 333.039 C 299.855 332.065,301.080 331.641,301.919 330.909 C 302.342 330.542,303.271 330.045,303.986 329.806 C 304.700 329.567,306.341 328.453,307.632 327.331 C 308.924 326.209,310.672 324.783,311.516 324.162 C 312.361 323.541,313.115 322.886,313.192 322.708 C 313.269 322.529,313.874 321.768,314.536 321.018 C 315.878 319.495,316.444 318.510,319.754 311.942 C 321.037 309.394,322.228 306.436,322.447 305.249 C 322.956 302.499,322.997 137.570,322.490 137.256 C 322.297 137.137,321.772 137.633,321.323 138.358 C 320.875 139.084,320.375 139.732,320.212 139.800 C 320.050 139.868,318.696 141.823,317.205 144.146 C 315.714 146.468,314.069 148.800,313.551 149.328 C 313.032 149.856,312.414 150.852,312.176 151.541 C 311.938 152.231,310.562 154.563,309.117 156.724 C 307.672 158.885,306.078 161.387,305.574 162.284 C 305.070 163.181,304.519 163.916,304.350 163.916 C 304.182 163.916,303.606 164.779,303.071 165.835 C 302.536 166.891,301.949 167.754,301.766 167.754 C 301.583 167.754,300.977 168.661,300.420 169.770 C 298.721 173.146,293.187 181.735,292.386 182.239 C 292.128 182.401,291.593 183.268,291.198 184.165 C 290.802 185.062,290.359 185.797,290.213 185.797 C 290.067 185.797,289.619 186.444,289.216 187.236 C 288.813 188.028,288.035 189.367,287.485 190.211 C 286.936 191.056,285.921 192.716,285.230 193.900 C 284.538 195.084,283.652 196.466,283.261 196.971 C 281.119 199.733,279.903 201.520,279.674 202.242 C 279.532 202.689,278.822 203.765,278.096 204.634 C 277.370 205.503,276.775 206.401,276.775 206.628 C 276.775 206.855,276.537 207.314,276.246 207.647 C 275.955 207.981,275.302 209.031,274.795 209.981 C 273.536 212.338,269.711 218.009,269.099 218.426 C 268.944 218.532,268.451 219.340,268.003 220.223 C 267.556 221.106,267.019 221.934,266.810 222.063 C 266.602 222.192,266.130 222.938,265.762 223.721 C 265.070 225.192,264.441 226.200,261.155 231.094 C 260.091 232.678,259.101 234.357,258.955 234.827 C 258.808 235.296,258.266 236.012,257.751 236.418 C 257.235 236.823,256.814 237.332,256.814 237.550 C 256.814 237.767,256.246 238.692,255.552 239.606 C 254.858 240.519,254.044 241.871,253.743 242.610 C 253.252 243.816,251.204 247.112,250.643 247.601 C 250.522 247.706,249.500 249.218,248.372 250.960 C 247.244 252.702,246.175 254.127,245.997 254.127 C 245.818 254.127,245.270 255.034,244.779 256.142 C 244.288 257.250,243.599 258.394,243.248 258.684 C 242.897 258.974,242.610 259.378,242.610 259.583 C 242.610 259.938,238.957 265.906,236.375 269.771 C 235.705 270.773,234.675 272.051,234.085 272.611 C 233.496 273.171,233.009 273.948,233.003 274.338 C 232.997 274.729,232.479 275.727,231.851 276.556 C 231.224 277.385,230.710 278.218,230.710 278.406 C 230.710 278.594,230.149 279.550,229.463 280.531 C 228.776 281.511,227.775 283.048,227.238 283.946 C 224.916 287.829,220.528 291.942,216.603 293.916 L 212.902 295.777 204.980 295.777 L 197.057 295.777 193.756 294.096 C 189.149 291.749,182.421 284.696,178.817 278.435 C 178.352 277.628,177.573 276.479,177.086 275.882 C 176.598 275.285,176.200 274.564,176.200 274.279 C 176.200 273.993,175.811 273.445,175.336 273.060 C 174.458 272.349,168.906 265.170,168.906 264.746 C 168.906 264.370,166.451 260.871,165.969 260.559 C 165.725 260.401,165.070 259.494,164.513 258.543 C 163.955 257.592,163.345 256.814,163.157 256.814 C 162.969 256.814,162.712 256.488,162.586 256.089 C 162.459 255.690,161.972 254.947,161.504 254.437 C 161.036 253.927,160.140 252.741,159.514 251.803 C 158.888 250.864,157.861 249.424,157.231 248.602 C 156.602 247.781,155.819 246.638,155.491 246.062 C 154.412 244.171,152.424 241.288,151.347 240.053 C 148.930 237.282,147.596 235.497,145.223 231.862 C 142.506 227.701,141.130 225.764,139.923 224.402 C 139.290 223.688,138.372 222.526,137.883 221.820 C 137.394 221.115,136.061 219.242,134.921 217.658 C 133.780 216.075,132.599 214.235,132.295 213.571 C 131.991 212.906,131.500 212.215,131.205 212.035 C 130.910 211.855,130.300 211.101,129.849 210.358 C 129.399 209.616,128.588 208.592,128.047 208.084 C 127.506 207.576,127.063 206.983,127.063 206.768 C 127.063 206.552,126.656 205.935,126.158 205.395 C 125.005 204.147,121.036 198.389,120.529 197.232 C 120.318 196.748,119.362 195.403,118.405 194.242 C 117.449 193.081,115.896 191.094,114.955 189.827 C 114.015 188.560,113.089 187.334,112.899 187.102 C 112.709 186.870,111.802 185.229,110.883 183.455 L 109.213 180.230 109.218 172.937 C 109.224 165.859,109.331 165.061,110.533 163.148 C 110.732 162.831,111.345 161.538,111.897 160.275 C 113.259 157.155,118.393 152.133,121.235 151.142 C 122.310 150.768,123.413 150.242,123.686 149.974 C 125.051 148.640,126.805 148.368,133.781 148.407 L 140.691 148.445 144.015 150.158 C 148.765 152.607,153.935 157.170,153.935 158.914 C 153.935 159.124,154.678 160.071,155.587 161.020 C 156.496 161.968,158.439 164.490,159.906 166.624 C 161.372 168.758,163.090 171.199,163.724 172.049 C 164.357 172.899,165.171 174.125,165.532 174.773 C 165.894 175.422,166.542 176.311,166.972 176.748 C 168.171 177.965,170.401 180.964,173.470 185.484 C 175.001 187.741,176.501 189.792,176.803 190.042 C 177.104 190.292,177.351 190.735,177.351 191.026 C 177.351 191.317,177.740 191.943,178.215 192.418 C 178.690 192.892,179.981 194.490,181.083 195.968 C 182.186 197.447,183.267 198.866,183.484 199.122 C 183.702 199.378,184.080 200.026,184.324 200.561 C 184.568 201.097,184.910 201.536,185.083 201.536 C 185.256 201.536,185.771 202.270,186.227 203.167 C 186.683 204.064,187.551 205.399,188.154 206.134 C 188.758 206.868,189.251 207.619,189.251 207.803 C 189.251 207.987,189.726 208.613,190.307 209.194 C 190.888 209.775,191.966 211.096,192.704 212.131 C 193.442 213.165,194.156 214.098,194.293 214.203 C 194.429 214.309,195.034 215.192,195.639 216.167 C 197.762 219.591,198.936 221.309,199.417 221.696 C 199.684 221.911,200.227 222.620,200.624 223.272 C 201.020 223.923,201.879 224.907,202.533 225.457 L 203.722 226.457 205.028 225.173 C 206.803 223.427,208.125 221.624,208.906 219.882 C 209.266 219.081,209.813 218.426,210.123 218.426 C 210.458 218.426,210.942 217.657,211.315 216.536 C 211.660 215.497,212.203 214.430,212.522 214.165 C 212.841 213.900,213.375 213.153,213.708 212.504 C 214.705 210.561,218.522 204.845,219.268 204.178 C 219.649 203.836,219.962 203.374,219.962 203.151 C 219.962 202.928,220.526 201.999,221.215 201.085 C 221.904 200.172,222.794 198.690,223.192 197.793 C 223.591 196.895,224.048 196.161,224.208 196.161 C 224.369 196.161,224.875 195.385,225.335 194.436 C 225.794 193.487,226.314 192.622,226.490 192.513 C 226.665 192.404,227.440 191.188,228.210 189.810 C 228.981 188.432,230.118 186.786,230.737 186.153 C 231.356 185.520,231.862 184.849,231.862 184.661 C 231.862 184.473,232.262 183.832,232.751 183.235 C 233.241 182.638,234.253 181.027,235.001 179.655 C 237.550 174.977,238.081 174.088,239.098 172.789 C 240.924 170.456,243.762 166.079,243.762 165.596 C 243.762 165.336,244.151 164.805,244.626 164.416 C 245.101 164.027,245.918 162.892,246.441 161.893 C 246.965 160.894,247.502 160.077,247.637 160.077 C 247.771 160.077,248.178 159.296,248.543 158.342 C 248.907 157.388,249.413 156.395,249.666 156.135 C 249.920 155.875,250.964 154.410,251.986 152.879 C 253.009 151.348,253.973 150.096,254.130 150.096 C 254.288 150.096,254.772 149.275,255.206 148.273 C 255.641 147.270,256.354 146.149,256.789 145.781 C 257.225 145.414,257.582 144.878,257.582 144.591 C 257.582 144.304,258.063 143.395,258.652 142.572 C 259.241 141.749,260.192 140.267,260.764 139.279 C 261.336 138.291,262.066 137.221,262.384 136.903 C 262.703 136.584,263.392 135.472,263.914 134.432 C 264.436 133.392,265.138 132.314,265.473 132.035 C 265.809 131.757,266.437 130.835,266.870 129.986 C 267.303 129.137,268.068 128.120,268.570 127.725 C 269.071 127.330,269.482 126.704,269.482 126.334 C 269.482 125.666,270.276 124.327,273.676 119.266 C 274.642 117.828,275.805 116.030,276.262 115.270 C 276.718 114.510,277.366 113.734,277.701 113.547 C 278.037 113.359,278.311 112.952,278.311 112.641 C 278.311 112.331,278.786 111.363,279.367 110.492 C 279.947 109.620,280.592 108.630,280.799 108.292 C 284.292 102.594,287.978 96.996,288.913 95.969 C 289.393 95.441,290.075 94.320,290.427 93.477 C 290.779 92.635,291.479 91.455,291.982 90.857 C 292.486 90.258,292.898 89.549,292.898 89.281 C 292.898 89.014,293.244 88.482,293.666 88.100 C 294.088 87.718,294.434 87.227,294.434 87.009 C 294.434 86.792,294.761 86.257,295.160 85.821 C 296.823 84.007,296.600 82.755,294.358 81.332 L 292.322 80.038 196.545 79.944 C 118.415 79.866,100.591 79.941,99.808 80.349 " stroke="none" fill="#066e55" fill-rule="evenodd"></path><path id="path1" d="M0.000 191.939 L 0.000 383.877 200.000 383.877 L 400.000 383.877 400.000 191.939 L 400.000 0.000 200.000 0.000 L 0.000 0.000 0.000 191.939 M356.238 28.957 C 360.145 30.875,365.835 34.890,365.835 35.727 C 365.835 35.902,366.250 36.493,366.757 37.040 C 367.264 37.587,367.791 38.483,367.929 39.031 C 368.067 39.580,368.645 40.639,369.214 41.386 L 370.250 42.743 370.250 50.834 C 370.250 58.656,370.220 58.966,369.369 60.160 C 368.885 60.839,368.239 62.235,367.933 63.264 C 367.628 64.292,367.031 65.447,366.607 65.831 C 366.182 66.216,365.835 66.736,365.835 66.988 C 365.835 67.241,365.352 68.121,364.761 68.944 C 364.170 69.768,363.056 71.564,362.285 72.937 C 361.513 74.309,360.356 76.036,359.713 76.775 C 359.069 77.514,358.543 78.328,358.542 78.584 C 358.542 78.840,358.221 79.358,357.829 79.736 C 357.437 80.113,356.812 81.234,356.440 82.227 C 356.068 83.219,355.439 84.326,355.041 84.686 C 354.644 85.045,354.319 85.520,354.319 85.740 C 354.319 85.961,353.567 87.273,352.648 88.656 C 348.680 94.629,347.936 95.808,347.080 97.473 C 346.583 98.440,346.026 99.326,345.843 99.441 C 345.478 99.669,344.116 101.991,342.588 104.990 C 342.051 106.046,340.851 107.946,339.923 109.213 C 338.994 110.480,338.226 111.741,338.215 112.015 C 338.205 112.290,337.591 113.137,336.852 113.897 C 336.113 114.658,335.509 115.540,335.509 115.858 C 335.509 116.175,335.102 116.969,334.604 117.622 C 334.107 118.275,333.578 119.194,333.430 119.664 C 333.282 120.133,332.566 121.381,331.839 122.437 C 331.113 123.494,330.518 124.526,330.518 124.731 C 330.518 124.936,329.611 126.193,328.503 127.523 L 326.488 129.942 326.296 216.763 L 326.104 303.583 325.252 304.734 C 324.743 305.422,324.234 306.940,323.986 308.509 C 323.757 309.952,323.061 312.183,322.438 313.466 C 321.815 314.750,321.305 315.976,321.305 316.192 C 321.305 316.670,317.791 321.373,316.049 323.225 C 315.354 323.964,314.784 324.667,314.783 324.788 C 314.776 325.212,308.319 330.504,307.236 330.974 C 306.634 331.235,305.674 331.826,305.102 332.288 C 303.057 333.942,294.260 337.028,290.449 337.430 C 285.426 337.959,106.486 337.937,101.317 337.407 C 99.146 337.184,96.666 336.688,95.806 336.304 C 94.946 335.920,93.577 335.392,92.765 335.131 C 91.953 334.870,90.830 334.418,90.270 334.125 C 89.710 333.833,89.112 333.593,88.941 333.592 C 88.769 333.590,87.838 332.985,86.870 332.246 C 85.902 331.507,84.874 330.902,84.586 330.902 C 84.298 330.902,83.761 330.543,83.394 330.103 C 83.026 329.664,82.121 328.988,81.382 328.601 C 80.643 328.215,79.175 326.906,78.119 325.693 C 77.063 324.480,75.812 323.076,75.338 322.573 C 74.864 322.069,74.190 321.103,73.841 320.426 C 73.492 319.748,72.907 318.982,72.541 318.724 C 72.174 318.465,71.492 317.515,71.024 316.612 C 68.072 310.922,67.593 309.716,67.221 307.039 C 67.004 305.477,66.476 303.082,66.047 301.716 C 65.028 298.464,64.783 115.662,65.795 113.704 C 66.090 113.134,66.632 110.854,66.999 108.637 C 67.818 103.699,71.367 96.016,73.145 95.334 C 73.453 95.216,73.704 94.885,73.704 94.598 C 73.704 94.311,74.223 93.486,74.856 92.765 C 75.489 92.044,76.008 91.331,76.008 91.181 C 76.008 90.265,81.947 85.288,85.181 83.493 C 85.942 83.071,86.889 82.433,87.286 82.075 C 87.683 81.717,88.892 81.235,89.973 81.004 C 91.054 80.772,92.543 80.168,93.282 79.661 C 94.237 79.005,95.569 78.617,97.889 78.319 C 102.117 77.775,294.055 78.001,296.954 78.553 C 299.946 79.122,301.042 78.671,302.001 76.476 C 302.446 75.457,303.084 74.396,303.420 74.117 C 303.756 73.838,304.031 73.395,304.031 73.132 C 304.031 72.868,304.693 71.810,305.502 70.780 C 306.312 69.749,307.092 68.647,307.236 68.330 C 307.380 68.013,308.014 66.977,308.645 66.027 C 309.276 65.077,310.093 63.792,310.462 63.172 C 310.831 62.552,311.542 61.616,312.042 61.093 C 312.543 60.570,313.188 59.577,313.476 58.888 C 313.764 58.198,314.179 57.524,314.397 57.389 C 314.615 57.254,315.217 56.309,315.733 55.290 C 316.998 52.793,318.881 49.969,321.265 46.995 C 321.447 46.767,322.042 45.875,322.587 45.012 C 323.132 44.149,323.752 43.335,323.966 43.203 C 324.180 43.070,324.681 42.225,325.079 41.323 C 326.473 38.173,329.634 34.210,330.778 34.178 C 331.027 34.171,331.560 33.746,331.962 33.234 C 332.916 32.022,339.850 28.323,341.836 27.966 C 345.653 27.281,353.995 27.855,356.238 28.957 M299.981 85.210 C 298.976 85.696,297.846 87.068,296.139 89.874 C 295.727 90.551,295.173 91.329,293.068 94.185 C 292.422 95.061,291.664 96.345,291.383 97.040 C 291.103 97.734,290.575 98.461,290.211 98.656 C 289.847 98.851,289.325 99.579,289.051 100.273 C 288.777 100.967,288.172 101.967,287.707 102.495 C 287.242 103.023,286.661 104.052,286.417 104.781 C 285.916 106.279,283.343 110.173,282.854 110.173 C 282.678 110.173,282.534 110.431,282.534 110.746 C 282.534 111.061,282.041 111.757,281.439 112.293 C 280.837 112.830,280.115 113.966,279.833 114.819 C 279.552 115.672,279.023 116.579,278.658 116.835 C 278.293 117.091,277.681 117.985,277.297 118.823 C 276.914 119.660,276.208 120.834,275.728 121.431 C 275.249 122.027,274.856 122.660,274.856 122.837 C 274.856 123.014,273.906 124.571,272.745 126.296 C 271.583 128.021,270.633 129.561,270.633 129.720 C 270.633 129.878,270.115 130.469,269.482 131.034 C 268.848 131.598,268.328 132.274,268.326 132.537 C 268.324 132.799,267.720 133.772,266.983 134.699 C 266.246 135.626,265.643 136.545,265.643 136.741 C 265.643 137.497,260.926 144.802,257.932 148.682 C 257.473 149.276,256.673 150.615,256.153 151.657 C 255.634 152.699,255.071 153.551,254.902 153.551 C 254.732 153.551,254.310 154.199,253.964 154.990 C 253.617 155.782,252.951 156.972,252.482 157.635 C 252.014 158.298,251.286 159.416,250.864 160.120 C 248.514 164.035,246.686 166.696,245.893 167.354 C 245.529 167.656,244.969 168.560,244.647 169.364 C 244.326 170.168,243.921 170.825,243.748 170.825 C 243.576 170.825,242.986 171.732,242.438 172.841 C 240.966 175.818,239.605 178.049,237.789 180.467 C 236.898 181.653,236.062 182.961,235.931 183.373 C 235.800 183.785,235.191 184.493,234.578 184.946 C 233.926 185.429,233.354 186.293,233.198 187.031 C 233.052 187.724,232.546 188.724,232.074 189.251 C 231.603 189.779,231.002 190.755,230.741 191.421 C 230.479 192.086,229.847 193.023,229.336 193.503 C 228.825 193.983,228.407 194.585,228.407 194.841 C 228.407 195.282,225.459 199.977,224.927 200.384 C 224.788 200.489,224.390 201.132,224.042 201.812 C 223.694 202.492,223.096 203.216,222.714 203.420 C 222.332 203.624,221.784 204.506,221.496 205.378 C 221.208 206.251,220.682 207.169,220.327 207.417 C 219.972 207.666,219.291 208.776,218.815 209.885 C 218.338 210.993,217.839 211.900,217.706 211.900 C 217.574 211.900,217.053 212.678,216.549 213.628 C 216.045 214.578,215.484 215.355,215.302 215.355 C 215.120 215.355,214.971 215.584,214.971 215.864 C 214.971 216.144,214.543 216.775,214.019 217.267 C 213.495 217.759,212.699 218.869,212.250 219.733 C 211.800 220.598,211.280 221.401,211.094 221.518 C 210.907 221.635,210.278 222.611,209.696 223.687 C 207.414 227.904,206.439 229.106,205.092 229.358 C 203.372 229.681,200.528 228.268,199.722 226.690 C 199.395 226.051,198.538 224.837,197.817 223.992 C 197.096 223.148,196.386 222.283,196.238 222.071 C 196.090 221.859,195.268 220.737,194.411 219.576 C 193.554 218.416,192.431 216.820,191.916 216.029 C 191.400 215.239,190.849 214.591,190.691 214.590 C 190.533 214.589,190.403 214.320,190.403 213.994 C 190.403 213.668,189.963 212.961,189.425 212.423 C 188.887 211.885,188.129 210.852,187.741 210.128 C 187.353 209.404,186.584 208.361,186.032 207.809 C 185.480 207.257,185.029 206.584,185.029 206.314 C 185.029 206.043,184.889 205.765,184.718 205.694 C 184.546 205.624,183.504 204.357,182.402 202.879 C 181.299 201.401,180.125 199.846,179.793 199.424 C 179.461 199.002,178.958 198.124,178.676 197.474 C 178.394 196.824,177.883 196.059,177.540 195.775 C 177.197 195.490,176.643 194.729,176.309 194.083 C 175.975 193.437,175.209 192.448,174.607 191.885 C 174.005 191.323,173.512 190.739,173.512 190.588 C 173.512 190.345,172.353 188.835,170.660 186.873 C 170.351 186.514,169.808 185.659,169.452 184.972 C 169.097 184.285,168.566 183.482,168.271 183.188 C 167.977 182.894,167.458 182.114,167.117 181.456 C 166.777 180.797,166.090 179.938,165.591 179.545 C 165.092 179.152,164.683 178.581,164.683 178.275 C 164.683 177.968,164.026 176.988,163.223 176.095 C 162.419 175.202,161.192 173.565,160.495 172.457 C 159.799 171.348,159.086 170.441,158.911 170.441 C 158.736 170.441,158.474 170.065,158.328 169.606 C 158.182 169.146,157.693 168.371,157.240 167.883 C 156.788 167.396,156.075 166.360,155.656 165.582 C 155.237 164.804,154.419 163.692,153.839 163.111 C 153.258 162.530,152.782 161.826,152.780 161.546 C 152.771 160.199,147.243 155.242,143.762 153.459 C 136.738 149.860,132.473 149.177,128.479 151.010 C 127.384 151.513,125.286 152.480,123.818 153.158 C 122.350 153.836,120.540 154.893,119.796 155.507 C 119.052 156.120,118.228 156.622,117.965 156.622 C 117.701 156.622,117.197 157.183,116.844 157.869 C 116.490 158.556,115.811 159.635,115.334 160.269 C 114.290 161.655,112.696 165.504,112.307 167.573 C 112.153 168.397,111.696 169.536,111.291 170.104 C 110.367 171.402,110.365 172.564,111.282 175.130 C 111.682 176.246,112.405 178.455,112.890 180.038 C 113.376 181.622,114.330 183.717,115.010 184.695 C 115.691 185.673,116.518 186.995,116.848 187.634 C 117.178 188.272,117.689 189.036,117.983 189.330 C 118.278 189.624,118.795 190.399,119.133 191.053 C 119.471 191.706,120.227 192.758,120.814 193.391 C 121.401 194.023,122.055 194.775,122.268 195.063 C 122.586 195.492,124.027 197.362,125.627 199.424 C 126.615 200.697,127.872 202.653,128.341 203.647 C 128.640 204.280,129.425 205.470,130.085 206.291 C 130.746 207.112,131.286 208.006,131.286 208.278 C 131.286 208.550,131.532 208.829,131.833 208.897 C 132.296 209.002,135.861 213.678,139.051 218.364 C 139.531 219.069,140.373 220.192,140.923 220.859 C 141.472 221.527,142.145 222.505,142.418 223.033 C 142.690 223.560,143.421 224.597,144.043 225.336 C 145.967 227.625,150.975 234.670,151.684 236.084 C 152.054 236.823,152.798 237.930,153.338 238.543 C 153.877 239.157,154.319 239.966,154.319 240.341 C 154.319 240.716,154.660 241.131,155.076 241.264 C 155.493 241.396,156.223 242.055,156.697 242.729 C 157.892 244.423,157.987 244.548,159.244 246.065 C 159.856 246.804,160.729 248.100,161.183 248.944 C 161.638 249.789,162.615 251.257,163.355 252.207 C 164.095 253.157,164.999 254.427,165.364 255.028 C 165.728 255.629,166.891 257.222,167.946 258.567 C 171.870 263.567,175.048 268.037,175.048 268.556 C 175.048 268.797,175.568 269.579,176.204 270.293 C 176.839 271.008,177.457 271.960,177.577 272.408 C 177.696 272.856,178.169 273.429,178.628 273.682 C 179.473 274.148,180.370 275.288,183.493 279.865 C 184.443 281.258,185.523 282.699,185.893 283.069 C 186.262 283.438,186.564 283.982,186.564 284.278 C 186.564 284.786,188.682 287.034,190.982 288.969 C 191.550 289.447,194.028 290.817,196.487 292.014 L 200.960 294.191 205.182 294.160 L 209.405 294.130 213.762 291.957 C 216.159 290.762,218.481 289.449,218.922 289.038 C 219.363 288.627,220.286 287.905,220.974 287.434 C 221.661 286.963,222.609 285.884,223.080 285.035 C 223.550 284.187,224.055 283.407,224.201 283.301 C 224.348 283.196,224.919 282.215,225.470 281.121 C 226.022 280.028,226.652 279.023,226.870 278.888 C 227.088 278.753,227.504 278.093,227.793 277.421 C 228.083 276.749,229.117 275.279,230.091 274.153 C 231.065 273.027,231.862 271.867,231.862 271.575 C 231.862 271.283,232.349 270.477,232.944 269.783 C 233.539 269.090,234.257 267.946,234.539 267.242 C 234.822 266.538,235.267 265.748,235.527 265.487 C 235.788 265.226,236.447 264.161,236.992 263.121 C 237.536 262.080,239.022 259.846,240.295 258.157 C 241.567 256.468,242.949 254.349,243.366 253.447 C 243.784 252.545,244.402 251.701,244.739 251.572 C 245.077 251.442,245.781 250.452,246.304 249.372 C 248.008 245.856,253.038 237.988,254.607 236.387 C 254.976 236.009,255.278 235.468,255.278 235.184 C 255.278 234.900,255.644 234.339,256.091 233.937 C 256.538 233.534,257.306 232.298,257.797 231.190 C 258.289 230.082,258.862 229.175,259.070 229.175 C 259.279 229.175,259.571 228.786,259.720 228.311 C 259.869 227.836,260.719 226.324,261.608 224.952 C 262.497 223.580,263.675 221.738,264.225 220.860 C 264.775 219.981,265.665 218.823,266.202 218.286 C 266.739 217.749,267.179 217.052,267.179 216.738 C 267.179 216.424,267.495 215.941,267.882 215.665 C 268.270 215.389,268.894 214.351,269.271 213.359 C 269.648 212.366,270.281 211.260,270.678 210.900 C 271.076 210.540,271.401 210.098,271.401 209.917 C 271.401 209.737,271.963 208.762,272.649 207.751 C 274.321 205.287,274.760 204.612,275.539 203.311 C 275.902 202.703,276.565 201.753,277.011 201.199 C 277.457 200.645,278.195 199.458,278.650 198.560 C 279.106 197.663,279.657 196.929,279.876 196.929 C 280.095 196.929,280.614 196.159,281.031 195.217 C 281.447 194.276,281.955 193.402,282.160 193.276 C 282.365 193.149,282.962 192.149,283.487 191.053 C 284.013 189.956,285.222 188.026,286.175 186.764 C 287.128 185.501,287.908 184.331,287.908 184.164 C 287.908 183.997,288.306 183.679,288.792 183.458 C 289.368 183.195,289.854 182.451,290.188 181.321 C 290.469 180.367,290.992 179.300,291.348 178.949 C 291.705 178.598,292.353 177.534,292.789 176.583 C 293.225 175.633,293.946 174.527,294.392 174.125 C 294.837 173.723,295.202 173.252,295.202 173.080 C 295.202 172.668,299.526 166.089,300.763 164.618 C 301.294 163.988,301.727 163.252,301.727 162.982 C 301.727 162.713,302.146 162.041,302.657 161.490 C 303.168 160.938,304.124 159.401,304.782 158.075 C 305.441 156.748,306.842 154.453,307.898 152.975 C 308.953 151.497,310.112 149.787,310.474 149.176 C 310.836 148.564,311.584 147.527,312.136 146.872 C 312.688 146.217,313.262 145.292,313.410 144.816 C 313.559 144.339,314.103 143.448,314.619 142.835 C 315.135 142.221,315.821 141.142,316.143 140.437 C 317.045 138.460,319.020 135.464,320.885 133.243 L 322.576 131.229 322.332 121.948 L 322.089 112.668 320.025 106.718 C 318.890 103.445,317.487 100.077,316.908 99.232 C 316.328 98.388,315.703 97.308,315.518 96.833 C 315.333 96.358,315.026 95.969,314.835 95.969 C 314.643 95.969,314.006 95.019,313.419 93.858 C 312.831 92.697,312.163 91.745,311.933 91.743 C 311.704 91.740,310.653 91.051,309.597 90.211 C 308.541 89.371,307.532 88.682,307.354 88.680 C 307.177 88.677,306.572 88.323,306.011 87.893 C 302.482 85.185,301.207 84.618,299.981 85.210 " stroke="none" fill="#fbfbfb" fill-rule="evenodd"></path><path id="path2" d="M341.843 29.515 C 339.262 30.265,336.859 31.421,337.191 31.753 C 337.311 31.873,337.630 31.797,337.899 31.584 C 340.343 29.647,349.691 28.631,353.359 29.904 C 355.994 30.819,360.226 32.906,361.228 33.786 C 361.756 34.249,362.452 34.826,362.775 35.068 C 366.726 38.034,369.024 43.244,369.316 49.904 L 369.560 55.470 369.521 49.904 L 369.482 44.338 367.946 41.283 C 363.246 31.931,351.597 26.679,341.843 29.515 M333.945 33.229 C 333.045 33.981,331.841 34.838,331.269 35.134 C 330.188 35.693,327.005 39.750,325.555 42.418 C 324.583 44.206,322.867 46.832,319.386 51.864 C 318.013 53.848,316.698 55.902,316.463 56.430 C 316.228 56.958,315.667 57.719,315.216 58.121 C 314.397 58.850,314.060 59.754,314.769 59.315 C 314.975 59.188,316.659 56.825,318.512 54.063 C 323.610 46.467,324.637 44.876,325.662 42.994 C 326.526 41.406,327.515 40.008,329.835 37.097 C 330.316 36.493,331.388 35.565,332.216 35.036 C 333.043 34.506,334.080 33.731,334.519 33.313 C 334.958 32.895,335.662 32.409,336.084 32.232 C 336.687 31.980,336.715 31.905,336.217 31.886 C 335.867 31.873,334.845 32.477,333.945 33.229 M368.944 56.430 C 368.755 58.562,365.572 64.712,361.948 69.946 C 361.552 70.518,361.228 71.103,361.228 71.246 C 361.228 71.735,363.400 69.018,364.128 67.618 C 364.528 66.849,365.230 65.701,365.689 65.067 C 366.842 63.475,369.364 57.236,369.161 56.476 C 369.028 55.976,368.985 55.967,368.944 56.430 M312.831 61.901 C 312.111 63.009,311.262 64.384,310.944 64.957 C 310.625 65.530,309.665 66.998,308.809 68.220 C 304.904 73.795,302.416 77.592,302.569 77.745 C 302.661 77.837,303.628 76.576,304.718 74.944 C 305.808 73.312,307.564 70.768,308.619 69.290 C 309.674 67.812,310.970 65.794,311.499 64.806 C 312.028 63.818,312.626 62.908,312.828 62.783 C 313.256 62.519,314.460 60.206,314.270 60.015 C 314.198 59.944,313.551 60.792,312.831 61.901 M360.577 72.457 C 360.344 73.099,359.857 73.875,357.057 78.065 C 356.371 79.091,355.881 80.001,355.967 80.088 C 356.053 80.174,356.552 79.593,357.075 78.798 C 360.286 73.914,361.228 72.397,361.228 72.109 C 361.228 71.546,360.830 71.758,360.577 72.457 M301.894 78.814 C 301.482 79.887,299.013 81.106,298.107 80.683 C 296.458 79.912,293.804 79.080,293.077 79.104 C 292.662 79.118,293.013 79.357,293.858 79.635 C 298.976 81.317,299.363 82.012,297.061 85.376 C 292.823 91.570,290.951 94.534,291.151 94.734 C 291.267 94.850,291.363 94.777,291.363 94.570 C 291.363 94.364,291.674 93.860,292.054 93.451 C 292.434 93.041,293.082 92.102,293.493 91.363 C 293.905 90.624,294.712 89.458,295.286 88.772 C 295.860 88.086,296.937 86.574,297.680 85.413 C 298.423 84.252,299.193 83.301,299.392 83.301 C 299.591 83.301,300.035 83.019,300.380 82.674 C 300.961 82.094,301.050 82.108,301.582 82.867 C 301.898 83.318,304.089 84.972,306.452 86.542 C 313.976 91.542,318.258 97.105,321.242 105.758 C 322.115 108.292,322.833 110.007,322.835 109.569 C 322.841 108.712,321.762 105.235,321.295 104.607 C 321.138 104.395,320.896 103.688,320.756 103.034 C 320.491 101.793,317.341 96.446,315.355 93.865 C 313.282 91.171,310.700 88.865,307.047 86.444 C 301.603 82.836,300.383 81.160,301.945 79.434 C 302.315 79.025,302.508 78.580,302.374 78.446 C 302.239 78.311,302.024 78.477,301.894 78.814 M148.081 78.983 C 174.525 79.037,217.798 79.037,244.242 78.983 C 270.686 78.928,249.050 78.884,196.161 78.884 C 143.273 78.884,121.636 78.928,148.081 78.983 M95.202 80.230 C 93.829 80.852,92.928 81.365,93.199 81.371 C 93.469 81.377,94.333 81.091,95.118 80.735 C 95.903 80.379,97.322 79.882,98.273 79.629 C 99.773 79.230,99.849 79.165,98.848 79.135 C 98.215 79.116,96.574 79.609,95.202 80.230 M355.191 81.230 C 355.028 81.630,354.213 82.994,353.380 84.261 C 349.693 89.867,348.944 91.095,348.944 91.539 C 348.944 91.799,348.497 92.513,347.950 93.126 C 347.403 93.740,346.755 94.678,346.511 95.212 C 345.980 96.369,344.718 98.397,340.952 104.152 C 339.406 106.513,337.787 109.266,337.353 110.269 C 336.920 111.272,336.438 112.092,336.283 112.092 C 336.127 112.092,335.459 113.106,334.799 114.345 C 334.139 115.583,333.337 116.814,333.018 117.079 C 332.699 117.344,332.434 117.755,332.430 117.993 C 332.423 118.374,331.608 119.691,328.808 123.840 C 328.396 124.452,327.473 125.618,326.757 126.432 C 326.042 127.246,325.228 128.455,324.949 129.119 L 324.440 130.326 324.148 129.175 C 323.987 128.541,323.867 127.505,323.882 126.871 C 324.007 121.582,323.973 119.982,323.685 117.466 C 323.429 115.232,323.380 116.135,323.469 121.497 C 323.532 125.298,323.699 129.572,323.840 130.996 L 324.097 133.585 322.725 134.158 C 321.306 134.751,320.097 136.319,315.761 143.186 C 314.628 144.981,313.080 147.411,312.321 148.586 C 311.562 149.761,310.943 150.884,310.947 151.081 C 310.951 151.278,311.333 150.835,311.796 150.096 C 312.259 149.357,312.751 148.666,312.890 148.560 C 313.028 148.455,313.500 147.678,313.939 146.833 C 316.701 141.519,321.499 135.317,322.847 135.317 L 324.184 135.317 324.184 219.096 C 324.184 286.567,324.277 302.520,324.661 301.054 C 325.034 299.628,325.135 280.819,325.123 214.512 L 325.108 129.793 326.070 128.268 C 326.599 127.430,327.205 126.637,327.416 126.507 C 327.921 126.195,331.470 120.761,333.698 116.891 C 334.670 115.202,335.973 113.129,336.593 112.284 C 337.214 111.440,337.852 110.317,338.010 109.789 C 338.169 109.261,338.430 108.743,338.591 108.637 C 338.968 108.389,346.271 96.781,346.546 95.993 C 346.661 95.663,347.204 94.802,347.754 94.079 C 348.303 93.356,349.098 92.119,349.520 91.330 C 349.942 90.541,351.238 88.398,352.399 86.568 C 353.560 84.737,354.834 82.727,355.228 82.101 C 355.623 81.474,355.843 80.859,355.716 80.732 C 355.590 80.606,355.353 80.830,355.191 81.230 M90.403 81.750 C 88.779 82.425,84.473 85.123,82.697 86.578 C 79.981 88.802,77.370 91.129,77.225 91.454 C 77.156 91.609,76.421 92.556,75.594 93.558 C 74.766 94.560,74.088 95.565,74.088 95.792 C 74.088 96.019,73.613 96.775,73.033 97.471 C 71.014 99.891,68.852 105.441,67.775 110.965 L 66.770 116.123 66.878 208.253 L 66.987 300.384 67.885 304.607 C 68.440 307.217,69.356 310.035,70.284 311.988 C 71.110 313.726,71.785 315.311,71.785 315.510 C 71.785 315.709,72.192 316.360,72.689 316.957 C 73.186 317.554,73.834 318.507,74.129 319.074 C 75.551 321.816,85.479 331.155,86.202 330.432 C 86.301 330.333,85.356 329.532,84.101 328.652 C 82.846 327.772,80.728 325.917,79.393 324.530 C 78.059 323.143,76.492 321.563,75.912 321.018 C 75.331 320.473,74.856 319.856,74.856 319.646 C 74.856 319.437,74.393 318.659,73.827 317.917 C 73.261 317.175,72.425 315.690,71.968 314.618 C 71.512 313.545,70.688 311.718,70.136 310.557 C 69.220 308.629,68.489 305.436,67.545 299.232 C 66.849 294.665,67.076 116.557,67.782 113.244 C 69.286 106.178,69.608 104.986,70.427 103.444 C 70.906 102.544,71.418 101.314,71.566 100.712 C 71.713 100.109,72.317 99.008,72.908 98.265 C 73.499 97.522,74.340 96.214,74.776 95.358 C 75.704 93.540,80.251 88.757,82.054 87.704 C 82.740 87.303,83.301 86.856,83.301 86.712 C 83.301 86.250,89.574 82.449,91.169 81.944 C 92.014 81.677,92.361 81.452,91.939 81.444 C 91.516 81.437,90.825 81.574,90.403 81.750 M290.595 95.513 C 290.595 95.684,290.246 96.199,289.820 96.656 C 289.394 97.114,288.440 98.485,287.700 99.704 C 286.960 100.922,285.498 103.215,284.450 104.798 C 283.402 106.382,282.215 108.282,281.812 109.021 C 281.409 109.760,280.716 110.694,280.271 111.096 C 279.324 111.953,279.164 112.818,280.095 112.045 C 280.830 111.435,285.876 103.712,288.122 99.758 C 288.558 98.991,289.379 97.812,289.947 97.137 C 290.902 96.002,291.249 95.202,290.787 95.202 C 290.681 95.202,290.595 95.342,290.595 95.513 M322.945 112.476 C 322.945 113.426,323.020 113.815,323.112 113.340 C 323.203 112.865,323.203 112.087,323.112 111.612 C 323.020 111.137,322.945 111.526,322.945 112.476 M277.762 115.314 C 275.440 118.923,271.042 125.673,268.105 130.134 C 266.646 132.351,265.107 134.796,264.684 135.567 C 264.261 136.338,262.775 138.670,261.380 140.750 C 259.985 142.829,258.648 144.905,258.407 145.364 C 258.167 145.822,257.729 146.439,257.433 146.734 C 257.138 147.030,256.445 148.123,255.894 149.164 C 255.343 150.204,254.570 151.488,254.175 152.015 C 252.878 153.750,249.520 158.894,249.520 159.145 C 249.520 159.280,249.025 160.020,248.420 160.789 C 247.815 161.559,247.207 162.548,247.070 162.989 C 246.933 163.429,246.220 164.465,245.484 165.292 C 244.748 166.118,244.146 166.910,244.146 167.051 C 244.146 167.192,244.049 167.624,243.929 168.011 C 243.810 168.398,244.004 168.196,244.359 167.562 C 244.714 166.929,245.395 165.979,245.872 165.451 C 246.349 164.923,246.956 164.060,247.221 163.532 C 247.486 163.004,248.951 160.672,250.476 158.349 C 252.001 156.027,253.446 153.751,253.685 153.293 C 253.925 152.834,254.359 152.221,254.650 151.931 C 254.941 151.640,255.482 150.806,255.852 150.077 C 256.478 148.846,259.657 143.863,260.370 142.994 C 261.155 142.039,264.143 137.454,264.998 135.893 C 265.909 134.228,267.815 131.192,269.457 128.791 C 272.682 124.073,276.775 117.740,276.775 117.470 C 276.775 117.289,277.182 116.653,277.678 116.056 C 278.657 114.879,279.602 113.241,279.398 113.073 C 279.328 113.016,278.592 114.024,277.762 115.314 M131.766 149.224 C 132.558 149.307,133.853 149.307,134.645 149.224 C 135.437 149.141,134.789 149.073,133.205 149.073 C 131.622 149.073,130.974 149.141,131.766 149.224 M125.638 150.262 C 124.749 150.771,123.626 151.311,123.143 151.462 C 117.928 153.100,110.113 163.053,110.199 167.946 C 110.207 168.369,110.810 167.090,111.540 165.106 C 114.277 157.665,121.043 151.448,128.407 149.609 C 129.043 149.450,129.010 149.410,128.215 149.377 C 127.687 149.355,126.528 149.754,125.638 150.262 M139.155 149.888 C 140.000 150.167,141.597 150.847,142.704 151.398 C 143.812 151.948,144.825 152.399,144.956 152.399 C 145.309 152.399,150.264 156.320,150.428 156.729 C 150.505 156.921,151.063 157.519,151.668 158.058 C 152.272 158.597,152.882 159.400,153.022 159.842 C 153.163 160.284,153.944 161.436,154.758 162.401 C 155.572 163.367,156.238 164.362,156.238 164.612 C 156.238 164.862,156.376 165.067,156.545 165.067 C 156.714 165.067,157.362 165.878,157.985 166.869 C 158.608 167.860,159.851 169.533,160.749 170.589 C 161.646 171.644,162.380 172.703,162.380 172.943 C 162.380 173.183,162.828 173.797,163.376 174.309 C 163.924 174.821,164.628 175.731,164.940 176.331 C 165.252 176.931,166.747 179.112,168.262 181.178 C 169.778 183.243,171.708 185.932,172.553 187.153 C 173.397 188.374,174.526 189.907,175.061 190.560 C 175.596 191.213,176.496 192.438,177.061 193.282 C 178.314 195.154,182.754 201.308,183.960 202.845 C 184.442 203.459,185.355 204.709,185.988 205.623 C 190.393 211.979,195.602 219.127,196.157 219.578 C 196.287 219.683,196.811 220.461,197.320 221.305 C 198.451 223.179,200.000 224.915,200.000 224.308 C 200.000 224.064,199.845 223.807,199.656 223.736 C 199.467 223.666,198.610 222.572,197.752 221.305 C 196.349 219.234,189.331 209.550,187.213 206.764 C 186.750 206.156,186.027 205.087,185.605 204.389 C 185.182 203.690,182.889 200.474,180.509 197.241 C 178.129 194.008,175.883 190.940,175.519 190.423 C 175.154 189.905,174.330 188.783,173.686 187.927 C 173.043 187.072,171.784 185.336,170.890 184.069 C 169.995 182.802,168.743 181.075,168.107 180.230 C 166.479 178.070,164.322 174.949,162.873 172.661 C 162.193 171.588,161.253 170.300,160.782 169.799 C 160.311 169.298,158.967 167.535,157.794 165.880 C 152.146 157.912,150.749 156.212,148.156 154.157 C 145.959 152.415,139.608 149.308,138.337 149.354 C 137.943 149.368,138.311 149.608,139.155 149.888 M308.610 154.346 C 307.675 155.839,306.716 157.272,306.480 157.532 C 306.243 157.791,305.744 158.599,305.371 159.328 C 304.700 160.637,304.178 161.453,301.034 166.104 C 300.148 167.413,299.424 168.594,299.424 168.728 C 299.424 168.993,297.991 171.111,295.117 175.095 C 294.108 176.493,293.282 177.806,293.282 178.012 C 293.282 178.219,292.751 179.121,292.102 180.016 C 291.453 180.912,291.000 181.723,291.095 181.818 C 291.189 181.912,291.864 181.076,292.595 179.958 C 295.896 174.908,300.223 168.192,302.687 164.295 C 306.833 157.737,310.277 152.604,310.625 152.463 C 311.035 152.297,311.035 151.631,310.626 151.631 C 310.452 151.631,309.546 152.853,308.610 154.346 M109.624 170.921 C 109.502 172.030,109.545 173.887,109.718 175.048 C 109.989 176.863,110.030 176.581,110.007 173.033 C 109.977 168.346,109.932 168.099,109.624 170.921 M242.612 169.962 C 241.064 171.942,234.934 181.635,234.933 182.103 C 234.933 182.289,234.328 183.110,233.589 183.928 C 232.850 184.746,232.246 185.589,232.246 185.802 C 232.246 186.129,230.090 189.532,227.012 194.061 C 224.440 197.848,223.845 198.796,223.253 200.061 C 222.891 200.834,222.261 201.767,221.854 202.136 C 221.447 202.505,221.113 202.961,221.113 203.150 C 221.113 203.686,223.083 201.458,223.563 200.378 C 223.799 199.847,225.692 196.848,227.769 193.713 C 229.846 190.578,231.970 187.212,232.489 186.233 C 233.007 185.254,233.856 184.057,234.374 183.574 C 234.893 183.090,235.317 182.520,235.317 182.307 C 235.317 181.962,239.136 175.852,242.521 170.784 C 243.883 168.744,243.936 168.267,242.612 169.962 M110.198 177.931 C 110.124 180.182,113.111 185.381,119.097 193.424 C 119.784 194.346,120.691 195.647,121.113 196.314 C 121.536 196.981,122.852 198.829,124.039 200.421 C 125.227 202.013,126.677 204.081,127.263 205.017 C 128.211 206.532,129.534 208.268,131.047 209.981 C 131.326 210.298,132.181 211.507,132.947 212.668 C 133.713 213.829,134.730 215.298,135.209 215.931 C 135.687 216.564,137.021 218.378,138.173 219.962 C 139.325 221.545,140.375 222.927,140.505 223.033 C 140.635 223.138,141.382 224.175,142.164 225.336 C 144.523 228.838,147.818 233.480,149.287 235.374 C 150.049 236.356,150.970 237.652,151.335 238.254 C 151.700 238.855,152.608 240.125,153.353 241.075 C 154.099 242.025,155.344 243.752,156.121 244.914 C 156.897 246.075,157.774 247.268,158.071 247.566 C 158.367 247.864,159.053 248.810,159.595 249.669 C 160.137 250.528,160.828 251.478,161.130 251.780 C 161.433 252.083,162.102 252.950,162.617 253.708 C 163.132 254.466,163.938 255.629,164.407 256.292 C 164.875 256.955,165.561 257.991,165.930 258.595 C 166.298 259.199,167.076 260.315,167.657 261.075 C 170.820 265.212,173.089 268.339,174.101 269.961 C 174.728 270.963,175.362 271.784,175.512 271.784 C 175.661 271.785,176.239 272.562,176.796 273.512 C 177.353 274.463,177.927 275.240,178.073 275.240 C 178.218 275.240,178.659 275.801,179.052 276.488 C 179.445 277.174,180.993 279.349,182.493 281.322 C 183.993 283.294,185.513 285.355,185.871 285.900 C 188.276 289.571,196.868 295.279,199.808 295.160 C 200.946 295.114,200.943 295.110,199.616 294.836 C 195.483 293.982,188.410 288.969,185.827 285.063 C 185.277 284.231,180.325 277.591,178.501 275.240 C 177.654 274.148,174.992 270.411,172.169 266.353 C 170.381 263.782,169.164 262.165,166.868 259.309 C 166.359 258.676,165.659 257.639,165.312 257.006 C 164.965 256.372,163.907 254.818,162.960 253.551 C 160.456 250.202,157.312 245.780,156.447 244.391 C 156.034 243.729,155.395 242.967,155.028 242.699 C 154.660 242.431,153.973 241.524,153.501 240.683 C 153.028 239.843,152.518 239.155,152.367 239.155 C 152.216 239.155,151.714 238.421,151.251 237.524 C 150.788 236.627,150.102 235.547,149.726 235.125 C 149.350 234.702,148.391 233.415,147.593 232.264 C 146.795 231.113,145.996 229.990,145.817 229.769 C 145.638 229.548,144.746 228.330,143.833 227.063 C 142.921 225.797,140.549 222.514,138.562 219.770 C 136.575 217.025,134.387 214.002,133.701 213.052 C 130.977 209.283,130.288 208.357,129.327 207.177 C 128.778 206.502,128.259 205.741,128.175 205.485 C 128.045 205.086,125.004 200.833,120.442 194.667 C 119.755 193.739,119.000 192.649,118.763 192.244 C 118.526 191.839,118.008 191.121,117.611 190.648 C 115.413 188.026,112.764 183.615,111.576 180.597 C 110.832 178.706,110.212 177.507,110.198 177.931 M290.595 182.566 C 290.595 182.759,289.990 183.597,289.251 184.427 C 288.512 185.257,287.908 186.129,287.908 186.365 C 287.908 186.601,287.131 187.863,286.180 189.169 C 285.230 190.474,284.453 191.648,284.453 191.777 C 284.453 192.085,281.074 197.203,279.955 198.590 C 279.473 199.187,279.079 199.873,279.079 200.115 C 279.079 200.357,279.371 200.128,279.728 199.606 C 280.085 199.084,280.488 198.570,280.623 198.464 C 280.758 198.359,281.701 196.977,282.719 195.393 C 286.946 188.819,288.133 186.957,288.757 185.924 C 289.119 185.326,289.798 184.365,290.267 183.787 C 290.736 183.210,291.001 182.620,290.857 182.476 C 290.713 182.332,290.595 182.372,290.595 182.566 M278.346 201.634 C 278.143 202.169,277.818 202.668,277.625 202.743 C 277.432 202.818,276.859 203.580,276.353 204.437 C 275.846 205.294,274.395 207.540,273.129 209.428 C 271.862 211.315,270.480 213.493,270.058 214.267 C 269.318 215.621,267.564 218.325,261.935 226.789 C 260.491 228.960,259.136 231.031,258.925 231.392 C 258.714 231.752,257.995 232.912,257.327 233.970 C 256.659 235.027,255.807 236.540,255.433 237.332 C 255.058 238.124,254.634 238.772,254.489 238.772 C 254.249 238.772,249.325 246.243,246.701 250.591 C 246.101 251.585,245.251 252.787,244.812 253.261 C 244.374 253.736,244.110 254.219,244.226 254.335 C 244.400 254.509,251.016 244.830,253.455 240.833 C 253.825 240.227,254.516 239.175,254.991 238.496 C 256.707 236.041,257.538 234.710,258.415 233.013 C 258.907 232.063,259.531 231.051,259.803 230.765 C 260.329 230.210,263.667 225.139,265.399 222.265 C 267.871 218.162,268.750 216.820,269.473 216.044 C 269.895 215.591,270.344 214.893,270.471 214.494 C 270.598 214.096,271.463 212.656,272.395 211.295 C 273.326 209.935,274.088 208.717,274.088 208.588 C 274.088 208.460,274.563 207.783,275.144 207.083 C 276.779 205.115,279.213 201.158,278.951 200.896 C 278.822 200.767,278.550 201.099,278.346 201.634 M217.461 208.899 C 215.622 211.711,213.818 214.443,213.452 214.971 C 213.086 215.499,212.482 216.520,212.110 217.240 C 211.737 217.961,211.020 218.995,210.515 219.540 C 210.010 220.084,209.601 220.704,209.605 220.917 C 209.614 221.327,210.747 220.036,211.790 218.426 C 214.279 214.585,215.191 213.219,215.379 213.052 C 215.497 212.946,216.260 211.737,217.073 210.365 C 217.887 208.992,219.150 207.041,219.879 206.028 C 220.608 205.015,221.115 204.097,221.005 203.987 C 220.895 203.877,219.301 206.087,217.461 208.899 M208.816 222.492 C 208.586 223.097,208.257 223.683,208.086 223.793 C 207.915 223.902,207.313 224.676,206.748 225.513 C 204.861 228.306,203.097 228.367,200.781 225.720 C 200.319 225.192,200.067 225.019,200.220 225.336 C 201.905 228.823,204.983 229.061,207.102 225.866 C 209.273 222.592,209.688 221.844,209.462 221.618 C 209.337 221.493,209.046 221.886,208.816 222.492 M242.603 257.039 C 241.868 258.192,240.775 259.779,240.174 260.565 C 239.572 261.352,238.632 262.774,238.084 263.724 C 237.535 264.674,236.688 265.986,236.202 266.639 C 235.715 267.292,235.317 267.993,235.317 268.195 C 235.317 268.398,234.539 269.668,233.589 271.017 C 232.639 272.367,231.862 273.635,231.862 273.836 C 231.862 274.333,233.324 272.252,235.731 268.330 C 236.832 266.536,239.201 262.861,240.995 260.164 C 242.789 257.468,244.185 255.190,244.098 255.102 C 244.010 255.015,243.338 255.886,242.603 257.039 M230.723 275.528 C 230.276 276.108,228.249 279.088,226.220 282.150 C 224.191 285.211,222.205 287.946,221.807 288.228 C 221.408 288.510,220.787 289.035,220.426 289.394 C 219.278 290.537,217.116 292.010,216.123 292.323 C 215.595 292.490,214.501 293.045,213.691 293.556 C 212.881 294.067,211.499 294.627,210.620 294.801 C 209.207 295.081,209.158 295.122,210.203 295.159 C 210.923 295.185,212.875 294.452,215.194 293.286 C 220.243 290.747,222.812 288.283,227.023 281.944 C 231.163 275.710,232.890 272.715,230.723 275.528 M323.417 304.798 C 323.269 305.671,323.235 306.472,323.340 306.578 C 323.446 306.683,323.653 306.055,323.800 305.182 C 323.948 304.309,323.982 303.509,323.877 303.403 C 323.771 303.298,323.564 303.925,323.417 304.798 M321.572 311.469 C 321.003 312.593,320.537 313.630,320.537 313.773 C 320.537 316.627,310.299 327.675,305.197 330.326 C 303.978 330.960,302.718 331.699,302.396 331.970 C 302.074 332.241,301.058 332.699,300.138 332.988 C 299.218 333.277,298.817 333.530,299.247 333.551 C 299.677 333.572,300.800 333.172,301.742 332.662 C 302.684 332.152,304.323 331.315,305.383 330.802 C 306.444 330.289,307.567 329.627,307.879 329.330 C 308.191 329.034,309.223 328.163,310.173 327.396 C 312.559 325.470,314.319 323.670,316.123 321.309 C 316.967 320.204,317.831 319.103,318.043 318.863 C 318.874 317.919,320.443 315.295,320.718 314.390 C 320.878 313.865,321.448 312.614,321.986 311.610 C 322.525 310.606,322.884 309.704,322.786 309.606 C 322.687 309.507,322.141 310.346,321.572 311.469 M88.138 331.591 C 89.969 332.902,98.317 335.699,101.727 336.143 C 104.960 336.564,286.984 336.552,290.019 336.130 C 292.777 335.747,296.003 334.878,297.428 334.134 C 298.895 333.370,298.037 333.460,295.554 334.333 C 289.856 336.336,291.868 336.299,194.050 336.175 C 97.990 336.053,98.288 336.058,96.161 334.365 C 95.950 334.196,94.500 333.700,92.939 333.262 C 91.378 332.824,89.469 332.027,88.696 331.492 C 87.923 330.956,87.145 330.518,86.966 330.518 C 86.787 330.518,87.315 331.001,88.138 331.591 " stroke="none" fill="#83bbac" fill-rule="evenodd"></path><path id="path3" d="M341.836 27.966 C 339.850 28.323,332.916 32.022,331.962 33.234 C 331.560 33.746,331.027 34.171,330.778 34.178 C 329.634 34.210,326.473 38.173,325.079 41.323 C 324.681 42.225,324.180 43.070,323.966 43.203 C 323.752 43.335,323.132 44.149,322.587 45.012 C 322.042 45.875,321.447 46.767,321.265 46.995 C 318.881 49.969,316.998 52.793,315.733 55.290 C 315.217 56.309,314.615 57.254,314.397 57.389 C 314.179 57.524,313.764 58.198,313.476 58.888 C 313.188 59.577,312.543 60.570,312.042 61.093 C 311.542 61.616,310.831 62.552,310.462 63.172 C 310.093 63.792,309.276 65.077,308.645 66.027 C 308.014 66.977,307.380 68.013,307.236 68.330 C 307.092 68.647,306.312 69.749,305.502 70.780 C 304.693 71.810,304.031 72.868,304.031 73.132 C 304.031 73.395,303.756 73.838,303.420 74.117 C 303.084 74.396,302.446 75.457,302.001 76.476 C 301.042 78.671,299.946 79.122,296.954 78.553 C 294.055 78.001,102.117 77.775,97.889 78.319 C 95.569 78.617,94.237 79.005,93.282 79.661 C 92.543 80.168,91.054 80.772,89.973 81.004 C 88.892 81.235,87.683 81.717,87.286 82.075 C 86.889 82.433,85.942 83.071,85.181 83.493 C 81.947 85.288,76.008 90.265,76.008 91.181 C 76.008 91.331,75.489 92.044,74.856 92.765 C 74.223 93.486,73.704 94.311,73.704 94.598 C 73.704 94.885,73.453 95.216,73.145 95.334 C 71.367 96.016,67.818 103.699,66.999 108.637 C 66.632 110.854,66.090 113.134,65.795 113.704 C 64.783 115.662,65.028 298.464,66.047 301.716 C 66.476 303.082,67.004 305.477,67.221 307.039 C 67.593 309.716,68.072 310.922,71.024 316.612 C 71.492 317.515,72.174 318.465,72.541 318.724 C 72.907 318.982,73.492 319.748,73.841 320.426 C 74.190 321.103,74.864 322.069,75.338 322.573 C 75.812 323.076,77.063 324.480,78.119 325.693 C 79.175 326.906,80.643 328.215,81.382 328.601 C 82.121 328.988,83.026 329.664,83.394 330.103 C 83.761 330.543,84.298 330.902,84.586 330.902 C 84.874 330.902,85.902 331.507,86.870 332.246 C 87.838 332.985,88.769 333.590,88.941 333.592 C 89.112 333.593,89.710 333.833,90.270 334.125 C 90.830 334.418,91.953 334.870,92.765 335.131 C 93.577 335.392,94.946 335.920,95.806 336.304 C 96.666 336.688,99.146 337.184,101.317 337.407 C 106.486 337.937,285.426 337.959,290.449 337.430 C 294.260 337.028,303.057 333.942,305.102 332.288 C 305.674 331.826,306.634 331.235,307.236 330.974 C 308.319 330.504,314.776 325.212,314.783 324.788 C 314.784 324.667,315.354 323.964,316.049 323.225 C 317.791 321.373,321.305 316.670,321.305 316.192 C 321.305 315.976,321.815 314.750,322.438 313.466 C 323.061 312.183,323.757 309.952,323.986 308.509 C 324.234 306.940,324.743 305.422,325.252 304.734 L 326.104 303.583 326.296 216.763 L 326.488 129.942 328.503 127.523 C 329.611 126.193,330.518 124.936,330.518 124.731 C 330.518 124.526,331.113 123.494,331.839 122.437 C 332.566 121.381,333.282 120.133,333.430 119.664 C 333.578 119.194,334.107 118.275,334.604 117.622 C 335.102 116.969,335.509 116.175,335.509 115.858 C 335.509 115.540,336.113 114.658,336.852 113.897 C 337.591 113.137,338.205 112.290,338.215 112.015 C 338.226 111.741,338.994 110.480,339.923 109.213 C 340.851 107.946,342.051 106.046,342.588 104.990 C 344.116 101.991,345.478 99.669,345.843 99.441 C 346.026 99.326,346.583 98.440,347.080 97.473 C 347.936 95.808,348.680 94.629,352.648 88.656 C 353.567 87.273,354.319 85.961,354.319 85.740 C 354.319 85.520,354.644 85.045,355.041 84.686 C 355.439 84.326,356.068 83.219,356.440 82.227 C 356.812 81.234,357.437 80.113,357.829 79.736 C 358.221 79.358,358.542 78.840,358.542 78.584 C 358.543 78.328,359.069 77.514,359.713 76.775 C 360.356 76.036,361.513 74.309,362.285 72.937 C 363.056 71.564,364.170 69.768,364.761 68.944 C 365.352 68.121,365.835 67.241,365.835 66.988 C 365.835 66.736,366.182 66.216,366.607 65.831 C 367.031 65.447,367.628 64.292,367.933 63.264 C 368.239 62.235,368.885 60.839,369.369 60.160 C 370.220 58.966,370.250 58.656,370.250 50.834 L 370.250 42.743 369.214 41.386 C 368.645 40.639,368.067 39.580,367.929 39.031 C 367.791 38.483,367.264 37.587,366.757 37.040 C 366.250 36.493,365.835 35.902,365.835 35.727 C 365.835 34.890,360.145 30.875,356.238 28.957 C 353.995 27.855,345.653 27.281,341.836 27.966 M353.108 29.421 C 359.679 31.329,365.135 35.691,367.946 41.283 L 369.482 44.338 369.464 50.672 L 369.447 57.006 367.985 60.461 C 367.181 62.361,366.148 64.434,365.689 65.067 C 365.230 65.701,364.528 66.849,364.128 67.618 C 363.728 68.388,362.912 69.577,362.314 70.261 C 361.717 70.945,361.228 71.714,361.228 71.969 C 361.228 72.382,359.479 75.254,357.252 78.497 C 356.820 79.127,356.063 80.423,355.572 81.376 C 355.080 82.329,353.654 84.664,352.403 86.564 C 351.152 88.464,349.865 90.596,349.542 91.301 C 349.219 92.006,348.504 93.119,347.952 93.775 C 347.401 94.430,346.808 95.337,346.636 95.790 C 346.259 96.782,339.006 108.364,338.591 108.637 C 338.430 108.743,338.169 109.261,338.010 109.789 C 337.852 110.317,337.214 111.440,336.593 112.284 C 335.973 113.129,334.670 115.202,333.698 116.891 C 331.470 120.761,327.921 126.195,327.416 126.507 C 327.205 126.637,326.600 127.428,326.073 128.264 L 325.113 129.784 325.032 215.084 L 324.951 300.384 323.887 305.182 C 323.302 307.821,322.415 310.758,321.916 311.708 C 321.417 312.658,320.878 313.865,320.718 314.390 C 320.443 315.295,318.874 317.919,318.043 318.863 C 317.831 319.103,316.967 320.204,316.123 321.309 C 314.319 323.670,312.559 325.470,310.173 327.396 C 309.223 328.163,308.191 329.034,307.878 329.331 C 307.566 329.628,306.560 330.203,305.643 330.609 C 304.727 331.014,303.380 331.751,302.650 332.246 C 301.921 332.741,300.433 333.337,299.345 333.570 C 298.256 333.804,297.181 334.142,296.955 334.322 C 296.353 334.801,292.666 335.762,290.019 336.130 C 286.984 336.552,104.960 336.564,101.727 336.143 C 98.317 335.699,89.969 332.902,88.138 331.591 C 87.315 331.001,86.474 330.518,86.270 330.518 C 84.781 330.518,75.554 321.822,74.129 319.074 C 73.834 318.507,73.186 317.554,72.689 316.957 C 72.192 316.360,71.785 315.709,71.785 315.510 C 71.785 315.311,71.110 313.726,70.284 311.988 C 69.356 310.035,68.440 307.217,67.885 304.607 L 66.987 300.384 66.878 208.253 L 66.770 116.123 67.775 110.965 C 68.852 105.441,71.014 99.891,73.033 97.471 C 73.613 96.775,74.088 96.019,74.088 95.792 C 74.088 95.565,74.766 94.560,75.594 93.558 C 76.421 92.556,77.156 91.609,77.225 91.454 C 77.370 91.129,79.981 88.802,82.693 86.581 C 85.345 84.409,89.870 81.846,91.824 81.408 C 92.745 81.201,94.529 80.550,95.789 79.960 L 98.081 78.887 195.777 78.887 C 302.019 78.887,293.960 78.745,298.107 80.683 C 299.209 81.197,301.471 79.818,302.263 78.149 C 302.826 76.963,305.012 73.648,308.810 68.220 C 309.665 66.998,310.631 65.516,310.956 64.926 C 311.281 64.337,312.188 62.889,312.971 61.709 C 313.754 60.528,314.395 59.403,314.395 59.207 C 314.395 59.012,314.764 58.523,315.216 58.121 C 315.667 57.719,316.228 56.958,316.463 56.430 C 316.698 55.902,318.013 53.848,319.386 51.864 C 322.867 46.832,324.583 44.206,325.555 42.418 C 327.005 39.750,330.188 35.693,331.269 35.134 C 331.841 34.838,333.045 33.981,333.945 33.229 C 334.845 32.477,335.814 31.862,336.099 31.862 C 336.383 31.862,337.254 31.486,338.034 31.026 C 341.636 28.900,348.717 28.146,353.108 29.421 M300.576 82.508 C 300.576 82.705,300.218 82.979,299.781 83.118 C 299.344 83.257,298.389 84.305,297.658 85.447 C 296.927 86.590,295.854 88.086,295.273 88.772 C 294.692 89.458,293.881 90.667,293.470 91.459 C 293.060 92.250,292.603 92.898,292.455 92.898 C 292.307 92.898,291.755 93.810,291.228 94.923 C 290.701 96.037,289.911 97.273,289.473 97.670 C 289.034 98.067,288.676 98.547,288.676 98.737 C 288.676 98.927,287.855 100.363,286.852 101.928 C 285.849 103.493,284.251 106.025,283.301 107.554 C 282.351 109.083,281.122 110.859,280.570 111.501 C 280.018 112.143,279.450 113.041,279.307 113.498 C 279.165 113.955,278.537 114.972,277.912 115.758 C 277.287 116.545,276.775 117.325,276.775 117.493 C 276.775 117.745,272.578 124.225,269.457 128.791 C 267.815 131.192,265.909 134.228,264.998 135.893 C 264.143 137.454,261.155 142.039,260.370 142.994 C 259.640 143.884,256.472 148.858,255.848 150.096 C 255.476 150.835,255.045 151.526,254.891 151.631 C 254.737 151.737,254.051 152.738,253.366 153.855 C 252.682 154.972,251.061 157.503,249.765 159.478 C 248.469 161.453,247.106 163.561,246.737 164.164 C 246.367 164.766,245.676 165.816,245.201 166.497 C 244.726 167.178,243.647 168.858,242.802 170.231 C 241.958 171.603,239.999 174.674,238.450 177.054 C 236.901 179.434,235.473 181.788,235.278 182.284 C 235.082 182.781,234.583 183.472,234.167 183.820 C 233.752 184.168,232.992 185.254,232.479 186.233 C 231.965 187.212,229.846 190.578,227.769 193.713 C 225.692 196.848,223.799 199.847,223.563 200.378 C 223.327 200.909,222.679 201.828,222.123 202.419 C 221.568 203.011,221.113 203.678,221.113 203.903 C 221.113 204.128,220.537 205.112,219.833 206.091 C 219.129 207.069,217.887 208.992,217.073 210.365 C 216.260 211.737,215.496 212.946,215.376 213.052 C 215.256 213.157,214.430 214.367,213.540 215.739 C 212.651 217.111,211.487 218.839,210.955 219.578 C 210.423 220.317,209.597 221.652,209.120 222.545 C 206.621 227.228,204.871 228.780,202.927 228.041 C 202.083 227.721,200.000 225.566,200.000 225.015 C 200.000 224.870,199.606 224.322,199.124 223.796 C 198.642 223.271,197.830 222.150,197.320 221.305 C 196.811 220.461,196.287 219.683,196.157 219.578 C 195.602 219.127,190.393 211.979,185.988 205.623 C 185.355 204.709,184.442 203.459,183.960 202.845 C 182.754 201.308,178.314 195.154,177.061 193.282 C 176.496 192.438,175.596 191.213,175.061 190.560 C 174.526 189.907,173.397 188.374,172.553 187.153 C 171.708 185.932,169.778 183.243,168.262 181.178 C 166.747 179.112,165.252 176.931,164.940 176.331 C 164.628 175.731,163.924 174.821,163.376 174.309 C 162.828 173.797,162.380 173.183,162.380 172.943 C 162.380 172.703,161.646 171.644,160.749 170.589 C 159.851 169.533,158.608 167.860,157.985 166.869 C 157.362 165.878,156.714 165.067,156.545 165.067 C 156.376 165.067,156.238 164.862,156.238 164.612 C 156.238 164.362,155.572 163.367,154.758 162.401 C 153.944 161.436,153.163 160.284,153.022 159.842 C 152.882 159.400,152.272 158.597,151.668 158.058 C 151.063 157.519,150.505 156.921,150.428 156.729 C 150.269 156.332,145.314 152.399,144.973 152.399 C 144.851 152.399,143.406 151.751,141.761 150.960 L 138.772 149.520 133.397 149.520 L 128.023 149.520 124.568 151.198 C 117.502 154.628,114.036 158.355,111.456 165.296 C 108.386 173.556,110.467 182.128,117.611 190.648 C 118.008 191.121,118.526 191.839,118.763 192.244 C 119.000 192.649,119.755 193.739,120.442 194.667 C 125.004 200.833,128.045 205.086,128.175 205.485 C 128.259 205.741,128.778 206.502,129.327 207.177 C 130.288 208.357,130.977 209.283,133.701 213.052 C 134.387 214.002,136.575 217.025,138.562 219.770 C 140.549 222.514,142.921 225.797,143.833 227.063 C 144.746 228.330,145.638 229.548,145.817 229.769 C 145.996 229.990,146.795 231.113,147.593 232.264 C 148.391 233.415,149.350 234.702,149.726 235.125 C 150.102 235.547,150.788 236.627,151.251 237.524 C 151.714 238.421,152.216 239.155,152.367 239.155 C 152.518 239.155,153.028 239.843,153.501 240.683 C 153.973 241.524,154.660 242.431,155.028 242.699 C 155.395 242.967,156.034 243.729,156.447 244.391 C 157.312 245.780,160.456 250.202,162.960 253.551 C 163.907 254.818,164.965 256.372,165.312 257.006 C 165.659 257.639,166.359 258.676,166.868 259.309 C 169.164 262.165,170.381 263.782,172.169 266.353 C 174.992 270.411,177.654 274.148,178.501 275.240 C 180.325 277.591,185.277 284.231,185.827 285.063 C 187.831 288.094,190.944 290.690,195.332 292.988 L 199.040 294.931 203.455 295.109 C 208.563 295.316,211.647 294.845,213.705 293.547 C 214.507 293.041,215.595 292.490,216.123 292.323 C 217.116 292.010,219.278 290.537,220.426 289.394 C 220.787 289.035,221.408 288.510,221.807 288.228 C 222.205 287.946,224.188 285.211,226.214 282.150 C 228.241 279.088,230.340 276.042,230.880 275.379 C 231.420 274.717,231.862 274.016,231.862 273.823 C 231.862 273.629,232.639 272.367,233.589 271.017 C 234.539 269.668,235.317 268.410,235.317 268.222 C 235.317 268.034,235.807 267.161,236.406 266.282 C 237.005 265.403,238.125 263.733,238.896 262.572 C 239.666 261.411,240.587 260.029,240.943 259.501 C 241.563 258.581,243.583 255.374,244.353 254.087 C 244.556 253.749,245.174 252.799,245.727 251.976 C 247.198 249.788,252.294 241.884,253.313 240.211 C 253.795 239.419,254.316 238.772,254.471 238.772 C 254.626 238.772,255.058 238.124,255.433 237.332 C 255.807 236.540,256.659 235.027,257.327 233.970 C 257.995 232.912,258.714 231.752,258.925 231.392 C 259.136 231.031,260.491 228.960,261.935 226.789 C 267.564 218.325,269.318 215.621,270.058 214.267 C 270.480 213.493,271.862 211.315,273.129 209.428 C 274.395 207.540,275.846 205.294,276.353 204.437 C 276.859 203.580,277.434 202.774,277.630 202.646 C 277.826 202.518,278.448 201.533,279.013 200.456 C 279.577 199.380,281.032 197.032,282.246 195.239 C 283.460 193.446,284.453 191.881,284.453 191.761 C 284.453 191.641,285.230 190.474,286.180 189.169 C 287.131 187.863,287.908 186.601,287.908 186.365 C 287.908 186.129,288.514 185.257,289.254 184.427 C 289.994 183.597,290.707 182.584,290.837 182.176 C 290.968 181.769,291.571 180.749,292.178 179.911 C 292.785 179.073,293.282 178.219,293.282 178.012 C 293.282 177.806,294.108 176.493,295.117 175.095 C 297.991 171.111,299.424 168.993,299.424 168.728 C 299.424 168.594,300.148 167.413,301.034 166.104 C 304.191 161.434,304.701 160.636,305.375 159.309 C 305.750 158.570,306.173 157.879,306.315 157.774 C 306.457 157.668,307.198 156.545,307.962 155.278 C 308.726 154.012,309.709 152.594,310.146 152.127 C 310.583 151.661,310.940 151.154,310.940 151.001 C 310.940 150.848,311.562 149.761,312.321 148.586 C 313.080 147.411,314.628 144.981,315.761 143.186 C 320.097 136.319,321.306 134.751,322.725 134.158 L 324.097 133.585 323.794 130.996 C 323.627 129.572,323.516 127.370,323.546 126.104 C 324.015 106.590,318.927 94.832,306.421 86.521 C 304.040 84.939,301.883 83.309,301.626 82.897 C 301.134 82.110,300.576 81.903,300.576 82.508 M306.011 87.893 C 306.572 88.323,307.177 88.677,307.354 88.680 C 307.532 88.682,308.541 89.371,309.597 90.211 C 310.653 91.051,311.704 91.740,311.933 91.743 C 312.163 91.745,312.831 92.697,313.419 93.858 C 314.006 95.019,314.643 95.969,314.835 95.969 C 315.026 95.969,315.333 96.358,315.518 96.833 C 315.703 97.308,316.328 98.388,316.908 99.232 C 317.487 100.077,318.890 103.445,320.025 106.718 L 322.089 112.668 322.332 121.948 L 322.576 131.229 320.885 133.243 C 319.020 135.464,317.045 138.460,316.143 140.437 C 315.821 141.142,315.135 142.221,314.619 142.835 C 314.103 143.448,313.559 144.339,313.410 144.816 C 313.262 145.292,312.688 146.217,312.136 146.872 C 311.584 147.527,310.836 148.564,310.474 149.176 C 310.112 149.787,308.953 151.497,307.898 152.975 C 306.842 154.453,305.441 156.748,304.782 158.075 C 304.124 159.401,303.168 160.938,302.657 161.490 C 302.146 162.041,301.727 162.713,301.727 162.982 C 301.727 163.252,301.294 163.988,300.763 164.618 C 299.526 166.089,295.202 172.668,295.202 173.080 C 295.202 173.252,294.837 173.723,294.392 174.125 C 293.946 174.527,293.225 175.633,292.789 176.583 C 292.353 177.534,291.705 178.598,291.348 178.949 C 290.992 179.300,290.469 180.367,290.188 181.321 C 289.854 182.451,289.368 183.195,288.792 183.458 C 288.306 183.679,287.908 183.997,287.908 184.164 C 287.908 184.331,287.128 185.501,286.175 186.764 C 285.222 188.026,284.013 189.956,283.487 191.053 C 282.962 192.149,282.365 193.149,282.160 193.276 C 281.955 193.402,281.447 194.276,281.031 195.217 C 280.614 196.159,280.095 196.929,279.876 196.929 C 279.657 196.929,279.106 197.663,278.650 198.560 C 278.195 199.458,277.457 200.645,277.011 201.199 C 276.565 201.753,275.902 202.703,275.539 203.311 C 274.760 204.612,274.321 205.287,272.649 207.751 C 271.963 208.762,271.401 209.737,271.401 209.917 C 271.401 210.098,271.076 210.540,270.678 210.900 C 270.281 211.260,269.648 212.366,269.271 213.359 C 268.894 214.351,268.270 215.389,267.882 215.665 C 267.495 215.941,267.179 216.424,267.179 216.738 C 267.179 217.052,266.739 217.749,266.202 218.286 C 265.665 218.823,264.775 219.981,264.225 220.860 C 263.675 221.738,262.497 223.580,261.608 224.952 C 260.719 226.324,259.869 227.836,259.720 228.311 C 259.571 228.786,259.279 229.175,259.070 229.175 C 258.862 229.175,258.289 230.082,257.797 231.190 C 257.306 232.298,256.538 233.534,256.091 233.937 C 255.644 234.339,255.278 234.900,255.278 235.184 C 255.278 235.468,254.976 236.009,254.607 236.387 C 253.038 237.988,248.008 245.856,246.304 249.372 C 245.781 250.452,245.077 251.442,244.739 251.572 C 244.402 251.701,243.784 252.545,243.366 253.447 C 242.949 254.349,241.567 256.468,240.295 258.157 C 239.022 259.846,237.536 262.080,236.992 263.121 C 236.447 264.161,235.788 265.226,235.527 265.487 C 235.267 265.748,234.822 266.538,234.539 267.242 C 234.257 267.946,233.539 269.090,232.944 269.783 C 232.349 270.477,231.862 271.283,231.862 271.575 C 231.862 271.867,231.065 273.027,230.091 274.153 C 229.117 275.279,228.083 276.749,227.793 277.421 C 227.504 278.093,227.088 278.753,226.870 278.888 C 226.652 279.023,226.022 280.028,225.470 281.121 C 224.919 282.215,224.348 283.196,224.201 283.301 C 224.055 283.407,223.550 284.187,223.080 285.035 C 222.609 285.884,221.661 286.963,220.974 287.434 C 220.286 287.905,219.363 288.627,218.922 289.038 C 218.481 289.449,216.159 290.762,213.762 291.957 L 209.405 294.130 205.182 294.160 L 200.960 294.191 196.487 292.014 C 194.028 290.817,191.550 289.447,190.982 288.969 C 188.682 287.034,186.564 284.786,186.564 284.278 C 186.564 283.982,186.262 283.438,185.893 283.069 C 185.523 282.699,184.443 281.258,183.493 279.865 C 180.370 275.288,179.473 274.148,178.628 273.682 C 178.169 273.429,177.696 272.856,177.577 272.408 C 177.457 271.960,176.839 271.008,176.204 270.293 C 175.568 269.579,175.048 268.797,175.048 268.556 C 175.048 268.037,171.870 263.567,167.946 258.567 C 166.891 257.222,165.728 255.629,165.364 255.028 C 164.999 254.427,164.095 253.157,163.355 252.207 C 162.615 251.257,161.638 249.789,161.183 248.944 C 160.729 248.100,159.856 246.804,159.244 246.065 C 157.987 244.548,157.892 244.423,156.697 242.729 C 156.223 242.055,155.493 241.396,155.076 241.264 C 154.660 241.131,154.319 240.716,154.319 240.341 C 154.319 239.966,153.877 239.157,153.338 238.543 C 152.798 237.930,152.054 236.823,151.684 236.084 C 150.975 234.670,145.967 227.625,144.043 225.336 C 143.421 224.597,142.690 223.560,142.418 223.033 C 142.145 222.505,141.472 221.527,140.923 220.859 C 140.373 220.192,139.531 219.069,139.051 218.364 C 135.861 213.678,132.296 209.002,131.833 208.897 C 131.532 208.829,131.286 208.550,131.286 208.278 C 131.286 208.006,130.746 207.112,130.085 206.291 C 129.425 205.470,128.640 204.280,128.341 203.647 C 127.872 202.653,126.615 200.697,125.627 199.424 C 124.027 197.362,122.586 195.492,122.268 195.063 C 122.055 194.775,121.401 194.023,120.814 193.391 C 120.227 192.758,119.471 191.706,119.133 191.053 C 118.795 190.399,118.278 189.624,117.983 189.330 C 117.689 189.036,117.178 188.272,116.848 187.634 C 116.518 186.995,115.691 185.673,115.010 184.695 C 114.330 183.717,113.376 181.622,112.890 180.038 C 112.405 178.455,111.682 176.246,111.282 175.130 C 110.365 172.564,110.367 171.402,111.291 170.104 C 111.696 169.536,112.153 168.397,112.307 167.573 C 112.696 165.504,114.290 161.655,115.334 160.269 C 115.811 159.635,116.490 158.556,116.844 157.869 C 117.197 157.183,117.701 156.622,117.965 156.622 C 118.228 156.622,119.052 156.120,119.796 155.507 C 120.540 154.893,122.350 153.836,123.818 153.158 C 125.286 152.480,127.384 151.513,128.479 151.010 C 132.473 149.177,136.738 149.860,143.762 153.459 C 147.243 155.242,152.771 160.199,152.780 161.546 C 152.782 161.826,153.258 162.530,153.839 163.111 C 154.419 163.692,155.237 164.804,155.656 165.582 C 156.075 166.360,156.788 167.396,157.240 167.883 C 157.693 168.371,158.182 169.146,158.328 169.606 C 158.474 170.065,158.736 170.441,158.911 170.441 C 159.086 170.441,159.799 171.348,160.495 172.457 C 161.192 173.565,162.419 175.202,163.223 176.095 C 164.026 176.988,164.683 177.968,164.683 178.275 C 164.683 178.581,165.092 179.152,165.591 179.545 C 166.090 179.938,166.777 180.797,167.117 181.456 C 167.458 182.114,167.977 182.894,168.271 183.188 C 168.566 183.482,169.097 184.285,169.452 184.972 C 169.808 185.659,170.351 186.514,170.660 186.873 C 172.353 188.835,173.512 190.345,173.512 190.588 C 173.512 190.739,174.005 191.323,174.607 191.885 C 175.209 192.448,175.975 193.437,176.309 194.083 C 176.643 194.729,177.197 195.490,177.540 195.775 C 177.883 196.059,178.394 196.824,178.676 197.474 C 178.958 198.124,179.461 199.002,179.793 199.424 C 180.125 199.846,181.299 201.401,182.402 202.879 C 183.504 204.357,184.546 205.624,184.718 205.694 C 184.889 205.765,185.029 206.043,185.029 206.314 C 185.029 206.584,185.480 207.257,186.032 207.809 C 186.584 208.361,187.353 209.404,187.741 210.128 C 188.129 210.852,188.887 211.885,189.425 212.423 C 189.963 212.961,190.403 213.668,190.403 213.994 C 190.403 214.320,190.533 214.589,190.691 214.590 C 190.849 214.591,191.400 215.239,191.916 216.029 C 192.431 216.820,193.554 218.416,194.411 219.576 C 195.268 220.737,196.090 221.859,196.238 222.071 C 196.386 222.283,197.096 223.148,197.817 223.992 C 198.538 224.837,199.395 226.051,199.722 226.690 C 200.528 228.268,203.372 229.681,205.092 229.358 C 206.439 229.106,207.414 227.904,209.696 223.687 C 210.278 222.611,210.907 221.635,211.094 221.518 C 211.280 221.401,211.800 220.598,212.250 219.733 C 212.699 218.869,213.495 217.759,214.019 217.267 C 214.543 216.775,214.971 216.144,214.971 215.864 C 214.971 215.584,215.120 215.355,215.302 215.355 C 215.484 215.355,216.045 214.578,216.549 213.628 C 217.053 212.678,217.574 211.900,217.706 211.900 C 217.839 211.900,218.338 210.993,218.815 209.885 C 219.291 208.776,219.972 207.666,220.327 207.417 C 220.682 207.169,221.208 206.251,221.496 205.378 C 221.784 204.506,222.332 203.624,222.714 203.420 C 223.096 203.216,223.694 202.492,224.042 201.812 C 224.390 201.132,224.788 200.489,224.927 200.384 C 225.459 199.977,228.407 195.282,228.407 194.841 C 228.407 194.585,228.825 193.983,229.336 193.503 C 229.847 193.023,230.479 192.086,230.741 191.421 C 231.002 190.755,231.603 189.779,232.074 189.251 C 232.546 188.724,233.052 187.724,233.198 187.031 C 233.354 186.293,233.926 185.429,234.578 184.946 C 235.191 184.493,235.800 183.785,235.931 183.373 C 236.062 182.961,236.898 181.653,237.789 180.467 C 239.605 178.049,240.966 175.818,242.438 172.841 C 242.986 171.732,243.576 170.825,243.748 170.825 C 243.921 170.825,244.326 170.168,244.647 169.364 C 244.969 168.560,245.529 167.656,245.893 167.354 C 246.686 166.696,248.514 164.035,250.864 160.120 C 251.286 159.416,252.014 158.298,252.482 157.635 C 252.951 156.972,253.617 155.782,253.964 154.990 C 254.310 154.199,254.732 153.551,254.902 153.551 C 255.071 153.551,255.634 152.699,256.153 151.657 C 256.673 150.615,257.473 149.276,257.932 148.682 C 260.926 144.802,265.643 137.497,265.643 136.741 C 265.643 136.545,266.246 135.626,266.983 134.699 C 267.720 133.772,268.324 132.799,268.326 132.537 C 268.328 132.274,268.848 131.598,269.482 131.034 C 270.115 130.469,270.633 129.878,270.633 129.720 C 270.633 129.561,271.583 128.021,272.745 126.296 C 273.906 124.571,274.856 123.014,274.856 122.837 C 274.856 122.660,275.249 122.027,275.728 121.431 C 276.208 120.834,276.914 119.660,277.297 118.823 C 277.681 117.985,278.293 117.091,278.658 116.835 C 279.023 116.579,279.552 115.672,279.833 114.819 C 280.115 113.966,280.837 112.830,281.439 112.293 C 282.041 111.757,282.534 111.061,282.534 110.746 C 282.534 110.431,282.678 110.173,282.854 110.173 C 283.343 110.173,285.916 106.279,286.417 104.781 C 286.661 104.052,287.242 103.023,287.707 102.495 C 288.172 101.967,288.777 100.967,289.051 100.273 C 289.325 99.579,289.847 98.851,290.211 98.656 C 290.575 98.461,291.103 97.734,291.383 97.040 C 291.664 96.345,292.422 95.061,293.068 94.185 C 295.173 91.329,295.727 90.551,296.139 89.874 C 299.765 83.912,300.602 83.743,306.011 87.893 " stroke="none" fill="#a6ccc4" fill-rule="evenodd"></path><path id="path4" d="M343.610 29.564 C 341.820 29.943,339.017 30.933,337.428 31.749 C 336.900 32.019,336.294 32.242,336.081 32.243 C 335.867 32.245,335.250 32.656,334.710 33.157 C 334.169 33.658,333.048 34.503,332.218 35.034 C 331.389 35.565,330.316 36.493,329.835 37.097 C 327.515 40.008,326.526 41.406,325.662 42.994 C 324.568 45.002,323.181 47.135,318.426 54.115 C 316.526 56.904,314.606 59.865,314.161 60.694 C 313.715 61.524,313.087 62.501,312.766 62.867 C 312.445 63.232,311.811 64.223,311.359 65.067 C 310.906 65.912,309.674 67.812,308.621 69.290 C 305.581 73.555,302.495 78.211,302.495 78.532 C 302.495 78.694,302.220 79.131,301.883 79.503 C 300.389 81.154,301.677 82.885,307.047 86.444 C 310.700 88.865,313.282 91.171,315.355 93.865 C 317.341 96.446,320.491 101.793,320.756 103.034 C 320.896 103.688,321.140 104.395,321.299 104.607 C 322.500 106.204,324.222 118.234,323.991 123.417 C 323.822 127.222,323.842 127.972,324.148 129.175 L 324.440 130.326 324.949 129.119 C 325.228 128.455,326.042 127.246,326.757 126.432 C 327.473 125.618,328.396 124.452,328.808 123.840 C 331.608 119.691,332.423 118.374,332.430 117.993 C 332.434 117.755,332.699 117.344,333.018 117.079 C 333.337 116.814,334.139 115.583,334.799 114.345 C 335.459 113.106,336.127 112.092,336.283 112.092 C 336.438 112.092,336.920 111.272,337.353 110.269 C 337.787 109.266,339.406 106.513,340.952 104.152 C 344.718 98.397,345.980 96.369,346.511 95.212 C 346.755 94.678,347.403 93.740,347.950 93.126 C 348.497 92.513,348.944 91.799,348.944 91.539 C 348.944 91.095,349.671 89.903,353.378 84.261 C 354.211 82.994,355.152 81.440,355.470 80.806 C 356.011 79.728,356.846 78.384,359.286 74.664 C 359.840 73.820,360.545 72.610,360.851 71.977 C 361.158 71.344,361.693 70.393,362.039 69.866 C 368.452 60.090,368.967 58.744,369.188 51.148 L 369.359 45.291 367.931 42.319 C 366.603 39.556,364.142 36.094,362.775 35.068 C 362.452 34.826,361.756 34.249,361.228 33.785 C 360.236 32.914,356.466 31.035,353.756 30.061 C 351.846 29.374,345.888 29.083,343.610 29.564 M351.836 30.871 C 359.550 33.076,365.188 37.649,366.781 42.994 C 366.938 43.522,367.333 44.376,367.660 44.892 C 368.780 46.662,368.746 52.303,367.594 55.770 C 367.049 57.413,366.603 59.005,366.603 59.309 C 366.603 59.613,366.237 60.515,365.790 61.313 C 364.361 63.865,361.534 68.503,361.044 69.098 C 360.783 69.415,360.369 70.271,360.123 71.001 C 359.878 71.731,359.352 72.681,358.954 73.112 C 358.556 73.543,357.912 74.435,357.522 75.093 C 355.294 78.858,353.818 81.213,353.581 81.382 C 353.161 81.682,350.480 86.237,350.480 86.651 C 350.480 86.855,350.161 87.310,349.771 87.663 C 349.381 88.015,348.856 88.992,348.604 89.834 C 348.352 90.675,347.713 91.838,347.184 92.419 C 345.857 93.874,343.188 97.976,343.187 98.560 C 343.187 98.824,343.048 99.040,342.879 99.040 C 342.710 99.040,342.185 99.774,341.713 100.672 C 341.241 101.569,340.169 103.340,339.330 104.607 C 338.491 105.873,337.460 107.661,337.038 108.580 C 336.616 109.499,335.919 110.708,335.489 111.267 C 333.758 113.521,332.020 116.181,331.627 117.179 C 331.398 117.759,331.067 118.234,330.890 118.234 C 330.714 118.234,330.454 118.599,330.313 119.044 C 330.171 119.490,329.494 120.483,328.807 121.252 C 328.120 122.020,327.385 123.167,327.173 123.800 L 326.787 124.952 326.356 123.417 C 324.744 117.681,324.412 116.234,324.194 114.012 C 323.620 108.142,323.060 105.308,322.019 103.014 C 321.415 101.682,320.921 100.422,320.921 100.214 C 320.921 99.614,316.893 93.562,315.884 92.645 C 315.382 92.189,314.661 91.369,314.282 90.822 C 313.902 90.275,313.341 89.827,313.034 89.827 C 312.727 89.827,312.476 89.662,312.476 89.461 C 312.476 88.506,307.858 84.836,304.990 83.513 C 303.190 82.682,302.893 82.316,302.885 80.920 C 302.878 79.775,303.605 77.927,304.061 77.927 C 304.221 77.927,304.746 77.279,305.227 76.488 C 305.708 75.696,306.200 74.962,306.320 74.856 C 306.440 74.750,307.226 73.581,308.068 72.257 C 308.909 70.933,309.980 69.292,310.447 68.610 C 310.915 67.928,311.668 66.636,312.121 65.739 C 312.574 64.842,313.095 64.107,313.280 64.107 C 313.464 64.107,314.050 63.287,314.583 62.284 C 315.498 60.560,318.361 56.374,320.120 54.189 C 320.561 53.641,320.921 53.039,320.921 52.851 C 320.921 52.664,321.440 51.742,322.073 50.804 C 322.707 49.865,323.485 48.594,323.803 47.981 C 324.120 47.367,324.811 46.433,325.338 45.906 C 325.865 45.380,326.296 44.705,326.296 44.408 C 326.296 44.111,326.812 43.196,327.443 42.375 C 328.897 40.484,328.912 40.464,330.518 38.331 C 331.257 37.351,332.466 36.141,333.205 35.644 C 333.944 35.147,334.864 34.352,335.249 33.877 C 335.633 33.402,336.295 33.013,336.719 33.013 C 337.142 33.013,338.555 32.593,339.858 32.078 C 344.581 30.213,348.242 29.844,351.836 30.871 M98.273 79.605 C 97.322 79.847,96.200 80.240,95.777 80.478 C 95.355 80.717,93.887 81.216,92.514 81.586 C 90.221 82.206,83.301 86.052,83.301 86.708 C 83.301 86.855,82.740 87.303,82.054 87.704 C 80.251 88.757,75.704 93.540,74.776 95.358 C 74.340 96.214,73.499 97.522,72.908 98.265 C 72.317 99.008,71.713 100.109,71.566 100.712 C 71.418 101.314,70.906 102.544,70.427 103.444 C 69.608 104.986,69.286 106.178,67.782 113.244 C 67.076 116.557,66.849 294.665,67.545 299.232 C 68.489 305.436,69.220 308.629,70.136 310.557 C 70.688 311.718,71.512 313.545,71.968 314.618 C 72.425 315.690,73.261 317.175,73.827 317.917 C 74.393 318.659,74.856 319.437,74.856 319.646 C 74.856 319.856,75.331 320.473,75.912 321.018 C 76.492 321.563,78.046 323.130,79.364 324.500 C 81.563 326.786,86.296 330.518,86.996 330.518 C 87.158 330.518,87.923 330.956,88.696 331.492 C 89.469 332.027,91.378 332.824,92.939 333.262 C 94.500 333.700,95.950 334.196,96.161 334.365 C 98.288 336.058,97.991 336.053,194.050 336.175 C 293.822 336.303,288.895 336.409,296.929 333.949 C 301.118 332.666,301.145 332.654,304.851 330.592 C 310.504 327.447,320.537 316.690,320.537 313.774 C 320.537 313.631,321.047 312.460,321.669 311.171 C 324.549 305.210,324.422 309.710,324.296 217.466 L 324.184 135.317 322.847 135.317 C 321.503 135.317,316.747 141.457,313.946 146.809 C 313.511 147.640,312.959 148.517,312.719 148.757 C 312.480 148.996,311.939 149.871,311.516 150.700 C 311.094 151.529,310.649 152.294,310.527 152.399 C 310.213 152.671,305.862 159.272,302.687 164.295 C 299.385 169.518,294.438 177.175,292.456 180.130 C 291.644 181.342,290.979 182.502,290.979 182.708 C 290.979 182.914,290.486 183.650,289.884 184.344 C 289.281 185.037,288.567 186.036,288.298 186.564 C 288.028 187.092,287.077 188.647,286.185 190.019 C 285.293 191.392,283.728 193.810,282.708 195.393 C 281.687 196.977,280.602 198.525,280.296 198.833 C 279.990 199.141,279.494 199.981,279.194 200.699 C 278.584 202.160,276.562 205.324,275.070 207.154 C 274.530 207.817,274.088 208.463,274.088 208.590 C 274.088 208.718,273.326 209.935,272.395 211.295 C 271.463 212.656,270.598 214.096,270.471 214.494 C 270.344 214.893,269.895 215.591,269.473 216.044 C 268.750 216.820,267.871 218.162,265.399 222.265 C 263.667 225.139,260.329 230.210,259.803 230.765 C 259.531 231.051,258.909 232.063,258.419 233.013 C 257.930 233.964,257.153 235.297,256.692 235.976 C 256.231 236.656,255.468 237.778,254.995 238.471 C 254.523 239.164,253.832 240.229,253.460 240.838 C 253.087 241.446,250.873 244.820,248.537 248.336 C 246.202 251.852,244.189 254.997,244.063 255.325 C 243.937 255.653,242.461 257.979,240.782 260.494 C 239.103 263.009,236.827 266.536,235.725 268.330 C 234.622 270.125,233.373 272.111,232.949 272.745 C 232.525 273.378,230.738 276.142,228.977 278.887 C 222.985 288.229,220.883 290.425,215.194 293.286 L 211.386 295.202 205.021 295.204 L 198.656 295.207 195.031 293.381 C 191.474 291.590,187.440 288.295,185.871 285.900 C 185.513 285.355,183.993 283.294,182.493 281.322 C 180.993 279.349,179.445 277.174,179.052 276.488 C 178.659 275.801,178.218 275.240,178.073 275.240 C 177.927 275.240,177.353 274.463,176.796 273.512 C 176.239 272.562,175.661 271.785,175.512 271.784 C 175.362 271.784,174.728 270.963,174.101 269.961 C 173.089 268.339,170.820 265.212,167.657 261.075 C 167.076 260.315,166.298 259.199,165.930 258.595 C 165.561 257.991,164.875 256.955,164.407 256.292 C 163.938 255.629,163.132 254.466,162.617 253.708 C 162.102 252.950,161.433 252.083,161.130 251.780 C 160.828 251.478,160.137 250.528,159.595 249.669 C 159.053 248.810,158.367 247.864,158.071 247.566 C 157.774 247.268,156.897 246.075,156.121 244.914 C 155.344 243.752,154.099 242.025,153.353 241.075 C 152.608 240.125,151.700 238.855,151.335 238.254 C 150.970 237.652,150.049 236.356,149.287 235.374 C 147.818 233.480,144.523 228.838,142.164 225.336 C 141.382 224.175,140.635 223.138,140.505 223.033 C 140.375 222.927,139.325 221.545,138.173 219.962 C 137.021 218.378,135.687 216.564,135.209 215.931 C 134.730 215.298,133.713 213.829,132.947 212.668 C 132.181 211.507,131.326 210.298,131.047 209.981 C 129.534 208.268,128.211 206.532,127.263 205.017 C 126.677 204.081,125.227 202.013,124.039 200.421 C 122.852 198.829,121.536 196.981,121.113 196.314 C 120.691 195.647,119.784 194.346,119.097 193.424 C 112.038 183.940,110.511 180.991,109.791 175.448 C 108.898 168.576,111.897 160.349,117.052 155.530 C 118.497 154.179,122.204 151.632,122.726 151.631 C 122.895 151.630,124.069 151.077,125.336 150.402 C 127.622 149.184,127.680 149.175,133.205 149.175 L 138.772 149.175 142.398 150.821 C 148.626 153.648,150.249 155.235,157.794 165.880 C 158.967 167.535,160.311 169.298,160.782 169.799 C 161.253 170.300,162.193 171.588,162.873 172.661 C 164.322 174.949,166.479 178.070,168.107 180.230 C 168.743 181.075,169.995 182.802,170.890 184.069 C 171.784 185.336,173.043 187.072,173.686 187.927 C 174.330 188.783,175.154 189.905,175.519 190.423 C 175.883 190.940,178.129 194.008,180.509 197.241 C 182.889 200.474,185.182 203.690,185.605 204.389 C 186.027 205.087,186.750 206.156,187.213 206.764 C 189.331 209.550,196.349 219.234,197.752 221.305 C 198.610 222.572,199.467 223.666,199.656 223.736 C 199.845 223.807,200.000 224.039,200.000 224.252 C 200.000 224.838,201.468 226.581,202.570 227.305 C 203.896 228.174,205.380 227.538,206.748 225.513 C 207.313 224.676,207.904 223.906,208.061 223.800 C 208.218 223.695,208.701 222.831,209.135 221.881 C 209.568 220.931,210.257 219.797,210.667 219.362 C 211.077 218.926,211.632 218.149,211.900 217.634 C 212.587 216.317,215.074 212.420,218.330 207.561 C 219.861 205.277,221.113 203.272,221.113 203.107 C 221.113 202.941,221.447 202.505,221.854 202.136 C 222.261 201.767,222.891 200.834,223.253 200.061 C 223.845 198.796,224.440 197.848,227.012 194.061 C 230.090 189.532,232.246 186.129,232.246 185.802 C 232.246 185.589,232.850 184.746,233.589 183.928 C 234.328 183.110,234.933 182.289,234.933 182.103 C 234.934 181.804,236.781 178.785,240.561 172.906 C 241.229 171.867,242.211 170.488,242.743 169.842 C 243.276 169.196,243.820 168.234,243.953 167.705 C 244.085 167.175,244.785 166.078,245.508 165.266 C 246.230 164.454,246.933 163.429,247.070 162.989 C 247.207 162.548,247.815 161.559,248.420 160.789 C 249.025 160.020,249.520 159.280,249.520 159.145 C 249.520 158.894,252.878 153.750,254.175 152.015 C 254.570 151.488,255.343 150.204,255.894 149.164 C 256.445 148.123,257.138 147.030,257.433 146.734 C 257.729 146.439,258.167 145.822,258.407 145.364 C 258.648 144.905,259.985 142.829,261.380 140.750 C 262.775 138.670,264.261 136.338,264.684 135.567 C 265.107 134.796,266.646 132.351,268.105 130.134 C 269.564 127.917,272.051 124.117,273.632 121.689 C 275.213 119.261,277.171 116.262,277.984 115.023 C 278.797 113.785,279.463 112.560,279.463 112.300 C 279.463 112.040,279.826 111.498,280.271 111.096 C 280.716 110.694,281.409 109.760,281.812 109.021 C 282.215 108.282,283.402 106.382,284.450 104.798 C 285.498 103.215,286.960 100.922,287.700 99.704 C 288.440 98.485,289.392 97.116,289.816 96.661 C 290.240 96.206,290.694 95.495,290.825 95.081 C 291.056 94.354,293.180 91.049,297.061 85.376 C 299.243 82.188,299.204 82.038,295.776 80.382 L 293.474 79.271 196.737 79.219 C 125.311 79.180,99.548 79.282,98.273 79.605 M294.358 81.332 C 296.600 82.755,296.823 84.007,295.160 85.821 C 294.761 86.257,294.434 86.792,294.434 87.009 C 294.434 87.227,294.088 87.718,293.666 88.100 C 293.244 88.482,292.898 89.014,292.898 89.281 C 292.898 89.549,292.486 90.258,291.982 90.857 C 291.479 91.455,290.779 92.635,290.427 93.477 C 290.075 94.320,289.393 95.441,288.913 95.969 C 287.978 96.996,284.292 102.594,280.799 108.292 C 280.592 108.630,279.947 109.620,279.367 110.492 C 278.786 111.363,278.311 112.331,278.311 112.641 C 278.311 112.952,278.037 113.359,277.701 113.547 C 277.366 113.734,276.718 114.510,276.262 115.270 C 275.805 116.030,274.642 117.828,273.676 119.266 C 270.276 124.327,269.482 125.666,269.482 126.334 C 269.482 126.704,269.071 127.330,268.570 127.725 C 268.068 128.120,267.303 129.137,266.870 129.986 C 266.437 130.835,265.809 131.757,265.473 132.035 C 265.138 132.314,264.436 133.392,263.914 134.432 C 263.392 135.472,262.703 136.584,262.384 136.903 C 262.066 137.221,261.336 138.291,260.764 139.279 C 260.192 140.267,259.241 141.749,258.652 142.572 C 258.063 143.395,257.582 144.304,257.582 144.591 C 257.582 144.878,257.225 145.414,256.789 145.781 C 256.354 146.149,255.641 147.270,255.206 148.273 C 254.772 149.275,254.288 150.096,254.130 150.096 C 253.973 150.096,253.009 151.348,251.986 152.879 C 250.964 154.410,249.920 155.875,249.666 156.135 C 249.413 156.395,248.907 157.388,248.543 158.342 C 248.178 159.296,247.771 160.077,247.637 160.077 C 247.502 160.077,246.965 160.894,246.441 161.893 C 245.918 162.892,245.101 164.027,244.626 164.416 C 244.151 164.805,243.762 165.336,243.762 165.596 C 243.762 166.079,240.924 170.456,239.098 172.789 C 238.081 174.088,237.550 174.977,235.001 179.655 C 234.253 181.027,233.241 182.638,232.751 183.235 C 232.262 183.832,231.862 184.473,231.862 184.661 C 231.862 184.849,231.356 185.520,230.737 186.153 C 230.118 186.786,228.981 188.432,228.210 189.810 C 227.440 191.188,226.665 192.404,226.490 192.513 C 226.314 192.622,225.794 193.487,225.335 194.436 C 224.875 195.385,224.369 196.161,224.208 196.161 C 224.048 196.161,223.591 196.895,223.192 197.793 C 222.794 198.690,221.904 200.172,221.215 201.085 C 220.526 201.999,219.962 202.928,219.962 203.151 C 219.962 203.374,219.649 203.836,219.268 204.178 C 218.522 204.845,214.705 210.561,213.708 212.504 C 213.375 213.153,212.841 213.900,212.522 214.165 C 212.203 214.430,211.660 215.497,211.315 216.536 C 210.942 217.657,210.458 218.426,210.123 218.426 C 209.813 218.426,209.266 219.081,208.906 219.882 C 208.125 221.624,206.803 223.427,205.028 225.173 L 203.722 226.457 202.533 225.457 C 201.879 224.907,201.020 223.923,200.624 223.272 C 200.227 222.620,199.684 221.911,199.417 221.696 C 198.936 221.309,197.762 219.591,195.639 216.167 C 195.034 215.192,194.429 214.309,194.293 214.203 C 194.156 214.098,193.442 213.165,192.704 212.131 C 191.966 211.096,190.888 209.775,190.307 209.194 C 189.726 208.613,189.251 207.987,189.251 207.803 C 189.251 207.619,188.758 206.868,188.154 206.134 C 187.551 205.399,186.683 204.064,186.227 203.167 C 185.771 202.270,185.256 201.536,185.083 201.536 C 184.910 201.536,184.568 201.097,184.324 200.561 C 184.080 200.026,183.702 199.378,183.484 199.122 C 183.267 198.866,182.186 197.447,181.083 195.968 C 179.981 194.490,178.690 192.892,178.215 192.418 C 177.740 191.943,177.351 191.317,177.351 191.026 C 177.351 190.735,177.104 190.292,176.803 190.042 C 176.501 189.792,175.001 187.741,173.470 185.484 C 170.401 180.964,168.171 177.965,166.972 176.748 C 166.542 176.311,165.894 175.422,165.532 174.773 C 165.171 174.125,164.357 172.899,163.724 172.049 C 163.090 171.199,161.372 168.758,159.906 166.624 C 158.439 164.490,156.496 161.968,155.587 161.020 C 154.678 160.071,153.935 159.124,153.935 158.914 C 153.935 157.170,148.765 152.607,144.015 150.158 L 140.691 148.445 133.781 148.407 C 126.805 148.368,125.051 148.640,123.686 149.974 C 123.413 150.242,122.310 150.768,121.235 151.142 C 118.393 152.133,113.259 157.155,111.897 160.275 C 111.345 161.538,110.732 162.831,110.533 163.148 C 109.331 165.061,109.224 165.859,109.218 172.937 L 109.213 180.230 110.883 183.455 C 111.802 185.229,112.709 186.870,112.899 187.102 C 113.089 187.334,114.015 188.560,114.955 189.827 C 115.896 191.094,117.449 193.081,118.405 194.242 C 119.362 195.403,120.318 196.748,120.529 197.232 C 121.036 198.389,125.005 204.147,126.158 205.395 C 126.656 205.935,127.063 206.552,127.063 206.768 C 127.063 206.983,127.506 207.576,128.047 208.084 C 128.588 208.592,129.399 209.616,129.849 210.358 C 130.300 211.101,130.910 211.855,131.205 212.035 C 131.500 212.215,131.991 212.906,132.295 213.571 C 132.599 214.235,133.780 216.075,134.921 217.658 C 136.061 219.242,137.394 221.115,137.883 221.820 C 138.372 222.526,139.290 223.688,139.923 224.402 C 141.130 225.764,142.506 227.701,145.223 231.862 C 147.596 235.497,148.930 237.282,151.347 240.053 C 152.424 241.288,154.412 244.171,155.491 246.062 C 155.819 246.638,156.602 247.781,157.231 248.602 C 157.861 249.424,158.888 250.864,159.514 251.803 C 160.140 252.741,161.036 253.927,161.504 254.437 C 161.972 254.947,162.459 255.690,162.586 256.089 C 162.712 256.488,162.969 256.814,163.157 256.814 C 163.345 256.814,163.955 257.592,164.513 258.543 C 165.070 259.494,165.725 260.401,165.969 260.559 C 166.451 260.871,168.906 264.370,168.906 264.746 C 168.906 265.170,174.458 272.349,175.336 273.060 C 175.811 273.445,176.200 273.993,176.200 274.279 C 176.200 274.564,176.598 275.285,177.086 275.882 C 177.573 276.479,178.352 277.628,178.817 278.435 C 182.421 284.696,189.149 291.749,193.756 294.096 L 197.057 295.777 204.980 295.777 L 212.902 295.777 216.603 293.916 C 220.528 291.942,224.916 287.829,227.238 283.946 C 227.775 283.048,228.776 281.511,229.463 280.531 C 230.149 279.550,230.710 278.594,230.710 278.406 C 230.710 278.218,231.224 277.385,231.851 276.556 C 232.479 275.727,232.997 274.729,233.003 274.338 C 233.009 273.948,233.496 273.171,234.085 272.611 C 234.675 272.051,235.705 270.773,236.375 269.771 C 238.957 265.906,242.610 259.938,242.610 259.583 C 242.610 259.378,242.897 258.974,243.248 258.684 C 243.599 258.394,244.288 257.250,244.779 256.142 C 245.270 255.034,245.818 254.127,245.997 254.127 C 246.175 254.127,247.244 252.702,248.372 250.960 C 249.500 249.218,250.522 247.706,250.643 247.601 C 251.204 247.112,253.252 243.816,253.743 242.610 C 254.044 241.871,254.858 240.519,255.552 239.606 C 256.246 238.692,256.814 237.767,256.814 237.550 C 256.814 237.332,257.235 236.823,257.751 236.418 C 258.266 236.012,258.808 235.296,258.955 234.827 C 259.101 234.357,260.091 232.678,261.155 231.094 C 264.441 226.200,265.070 225.192,265.762 223.721 C 266.130 222.938,266.602 222.192,266.810 222.063 C 267.019 221.934,267.556 221.106,268.003 220.223 C 268.451 219.340,268.944 218.532,269.099 218.426 C 269.711 218.009,273.536 212.338,274.795 209.981 C 275.302 209.031,275.955 207.981,276.246 207.647 C 276.537 207.314,276.775 206.855,276.775 206.628 C 276.775 206.401,277.370 205.503,278.096 204.634 C 278.822 203.765,279.532 202.689,279.674 202.242 C 279.903 201.520,281.119 199.733,283.261 196.971 C 283.652 196.466,284.538 195.084,285.230 193.900 C 285.921 192.716,286.936 191.056,287.485 190.211 C 288.035 189.367,288.813 188.028,289.216 187.236 C 289.619 186.444,290.067 185.797,290.213 185.797 C 290.359 185.797,290.802 185.062,291.198 184.165 C 291.593 183.268,292.128 182.401,292.386 182.239 C 293.187 181.735,298.721 173.146,300.420 169.770 C 300.977 168.661,301.583 167.754,301.766 167.754 C 301.949 167.754,302.536 166.891,303.071 165.835 C 303.606 164.779,304.182 163.916,304.350 163.916 C 304.519 163.916,305.070 163.181,305.574 162.284 C 306.078 161.387,307.672 158.885,309.117 156.724 C 310.562 154.563,311.938 152.231,312.176 151.541 C 312.414 150.852,313.032 149.856,313.551 149.328 C 314.069 148.800,315.714 146.468,317.205 144.146 C 318.696 141.823,320.050 139.868,320.212 139.800 C 320.375 139.732,320.875 139.084,321.323 138.358 C 321.772 137.633,322.297 137.137,322.490 137.256 C 322.997 137.570,322.956 302.499,322.447 305.249 C 322.228 306.436,321.037 309.394,319.754 311.942 C 316.444 318.510,315.878 319.495,314.536 321.018 C 313.874 321.768,313.269 322.529,313.192 322.708 C 313.115 322.886,312.361 323.541,311.516 324.162 C 310.672 324.783,308.924 326.209,307.632 327.331 C 306.341 328.453,304.700 329.567,303.986 329.806 C 303.271 330.045,302.342 330.542,301.919 330.909 C 301.080 331.641,299.855 332.065,295.777 333.039 C 293.171 333.661,292.437 333.804,287.140 334.716 C 283.328 335.372,104.168 335.077,101.536 334.410 C 100.480 334.142,98.839 333.686,97.889 333.397 C 96.939 333.107,95.384 332.757,94.434 332.620 C 93.484 332.483,91.701 331.781,90.472 331.060 C 89.242 330.340,88.011 329.750,87.735 329.750 C 87.460 329.750,87.007 329.477,86.729 329.142 C 86.452 328.808,85.463 328.010,84.533 327.370 C 82.017 325.639,75.658 319.177,75.058 317.742 C 74.771 317.054,74.186 316.174,73.758 315.787 C 73.330 315.400,72.864 314.540,72.721 313.876 C 72.579 313.211,71.985 311.631,71.401 310.365 C 70.817 309.098,70.144 306.766,69.906 305.182 C 69.669 303.599,69.293 301.180,69.072 299.808 C 68.505 296.294,68.808 115.640,69.387 111.900 C 69.933 108.370,70.646 105.558,71.236 104.607 C 71.498 104.184,72.019 102.845,72.395 101.631 C 72.770 100.417,73.203 99.424,73.358 99.424 C 73.512 99.424,74.194 98.517,74.873 97.409 C 75.553 96.300,76.216 95.307,76.347 95.202 C 76.478 95.096,77.055 94.317,77.628 93.471 C 78.815 91.720,83.840 87.395,86.128 86.157 C 86.579 85.913,88.157 85.020,89.635 84.173 C 91.113 83.326,92.927 82.507,93.666 82.354 C 95.549 81.961,98.669 80.943,99.808 80.349 C 100.591 79.941,118.415 79.866,196.545 79.944 L 292.322 80.038 294.358 81.332 " stroke="none" fill="#74b4a4" fill-rule="evenodd"></path></g></svg>